<svg width="50" height="50" viewBox="0 0 50 50" fill="none" xmlns="http://www.w3.org/2000/svg">
<g clip-path="url(#clip0_308_1841)">
<path d="M18.3314 36.3454C18.6381 35.829 18.9689 35.3772 19.1786 34.8769C19.5659 33.9733 19.2755 32.9728 18.4605 32.3112C16.8549 31.0041 15.2735 29.6647 13.5953 28.4545C11.2797 26.7843 8.7381 26.5261 6.10779 27.6557C4.84912 28.1963 3.65499 28.8902 2.29143 29.1322C1.54107 29.2613 0.782637 29.342 0 29.4469C0 28.8418 0 28.3415 0 27.8171C0.556721 27.7525 1.11344 27.696 1.67016 27.6073C2.79974 27.4298 3.8325 26.978 4.84105 26.4535C6.54349 25.566 8.33468 25.1706 10.255 25.4207C10.3034 25.4288 10.3599 25.4207 10.4647 25.4127C10.4647 25.2674 10.4647 25.1222 10.4647 24.977C10.4647 23.8071 10.4647 22.6371 10.4647 21.4672C10.4647 20.8056 10.7633 20.5071 11.4249 20.5071C20.4615 20.5071 29.4981 20.5071 38.5348 20.5071C39.2206 20.5071 39.5111 20.8056 39.5111 21.4914C39.5111 25.6709 39.5111 29.8584 39.5111 34.0378C39.5111 34.7478 39.2206 35.0302 38.4944 35.0302C32.7659 35.0302 27.0373 35.0383 21.3087 35.0222C20.9537 35.0222 20.8004 35.119 20.6794 35.4579C20.5099 35.9178 20.2356 36.3454 19.9774 36.8456C20.3244 36.9102 20.6713 36.9747 21.0182 37.0312C24.7055 37.6121 28.4008 38.1931 32.0881 38.774C33.6857 39.0241 34.7668 40.3635 34.6619 41.961C34.5651 43.494 33.258 44.7123 31.6605 44.7123C27.5052 44.7204 23.35 44.7204 19.1948 44.7123C16.7662 44.7043 14.507 44.0427 12.3528 42.9454C10.7229 42.1143 9.08504 41.2994 7.43101 40.541C6.40633 40.073 5.30095 39.8955 4.17137 39.8874C2.9369 39.8794 1.69437 39.8794 0.4599 39.8794C0.314668 39.8794 0.169437 39.8794 0 39.8794C0 39.3388 0 38.8385 0 38.3302C0.0161368 38.3141 0.0322737 38.2818 0.0564789 38.2899C1.71857 38.2979 3.38874 38.2657 5.05083 38.3383C6.54349 38.4028 7.93933 38.9192 9.27061 39.5889C10.8682 40.3957 12.4576 41.2026 14.0713 41.9691C15.6366 42.7033 17.2987 43.0906 19.0253 43.0987C23.2209 43.1229 27.4165 43.1067 31.6121 43.1067C32.2091 43.1067 32.6529 42.8485 32.9111 42.316C33.1531 41.8077 33.1047 41.2913 32.7174 40.8879C32.4915 40.6539 32.1446 40.4522 31.8299 40.3957C28.4089 39.8309 24.9798 39.2984 21.5588 38.7578C20.5261 38.5965 19.4852 38.4351 18.4525 38.2576C18.283 38.2334 18.1136 38.1527 17.9764 38.0559C15.6608 36.5148 13.3452 34.9738 11.0295 33.4246C10.9731 33.3843 10.9246 33.3439 10.8198 33.2633C11.1102 32.8276 11.3926 32.3999 11.7073 31.94C13.918 33.4085 16.0884 34.8527 18.3314 36.3454ZM37.8732 26.9295C35.2348 26.3486 33.6614 24.7753 33.0967 22.1611C27.6908 22.1611 22.2769 22.1611 16.8549 22.1611C16.4999 24.154 15.3865 25.566 13.6437 26.4777C14.4747 27.099 15.2574 27.688 16.1207 28.3334C16.1207 27.8251 16.1207 27.4217 16.1207 27.0022C17.2099 27.0022 18.2508 27.0022 19.3077 27.0022C19.3077 27.5427 19.3077 28.0511 19.3077 28.6158C18.3637 28.6158 17.4439 28.6158 16.4354 28.6158C16.6532 28.7933 16.7823 28.9063 16.9195 29.0112C17.7667 29.6889 18.6219 30.3748 19.4691 31.0525C20.1146 31.5689 20.5825 32.2305 20.7843 33.0293C20.8649 33.3439 20.994 33.4408 21.3248 33.4408C25.117 33.4246 28.9091 33.4327 32.7013 33.4327C32.8304 33.4327 32.9676 33.4327 33.0967 33.4327C33.6695 30.7862 35.2509 29.1968 37.8812 28.632C37.8732 28.0591 37.8732 27.5024 37.8732 26.9295ZM37.8651 33.4004C37.8651 32.3435 37.8651 31.3268 37.8651 30.3183C36.3644 30.5603 34.9201 32.0288 34.8072 33.4004C35.8157 33.4004 36.8323 33.4004 37.8651 33.4004ZM37.8732 22.1611C36.8162 22.1611 35.7996 22.1611 34.791 22.1611C35.0492 23.678 36.5096 25.1141 37.8732 25.219C37.8732 24.2024 37.8732 23.1858 37.8732 22.1611ZM12.1188 22.145C12.1188 23.1697 12.1188 24.1943 12.1188 25.219C13.4743 25.1141 15.0879 23.5085 15.1686 22.145C14.1601 22.145 13.1596 22.145 12.1188 22.145Z" fill="#37383D"/>
<path d="M27.4083 14.8672C27.4083 15.3997 27.4164 15.8758 27.4083 16.3599C27.4003 17.1264 26.8274 17.4894 26.1497 17.1586C22.9707 15.5772 19.8079 13.9877 16.6289 12.3983C16.3143 12.245 16.1125 12.0029 16.1125 11.6398C16.1125 11.2364 16.3546 11.0105 16.6935 10.8411C19.3964 9.49363 22.0993 8.13814 24.8103 6.79071C25.2541 6.5648 25.6978 6.33888 26.1416 6.12103C26.8274 5.79023 27.3922 6.14524 27.4083 6.90367C27.4164 7.36357 27.4164 7.8154 27.4164 8.2753C27.4164 8.29951 27.4325 8.32371 27.4567 8.4044C27.5939 8.4044 27.7472 8.4044 27.9005 8.4044C29.3609 8.4286 30.8374 8.39633 32.2897 8.50122C35.6865 8.74327 38.7929 9.88899 41.5926 11.8254C45.1831 14.3105 47.6601 17.6427 49.0398 21.7818C49.6691 23.686 49.9838 25.6385 49.9918 27.6476C49.9918 28.2688 49.6852 28.5754 49.0398 28.5835C47.5632 28.5835 46.0787 28.5835 44.6021 28.5835C43.8034 28.5835 43.5613 28.3253 43.529 27.5266C43.3031 22.6048 41.052 18.9095 36.7919 16.4567C34.912 15.3594 32.8384 14.8753 30.6599 14.8672C29.5949 14.8591 28.5379 14.8672 27.4083 14.8672ZM48.3459 26.9456C48.354 26.8569 48.362 26.8004 48.354 26.752C48.2249 24.7752 47.8134 22.863 47.0469 21.0395C44.2229 14.3024 37.8489 10.0504 30.547 10.0261C29.256 10.0181 27.9651 10.0261 26.6741 10.0261C26.1093 10.0261 25.8027 9.71148 25.7866 9.15476C25.7785 8.84009 25.7866 8.51735 25.7866 8.11393C23.4145 9.29999 21.123 10.4457 18.7186 11.6479C21.115 12.8501 23.4145 13.9958 25.7866 15.1819C25.7866 14.8027 25.7866 14.5122 25.7866 14.2217C25.7947 13.5601 26.0851 13.2616 26.7467 13.2616C28.0942 13.2616 29.4335 13.2535 30.7809 13.2616C37.2922 13.3342 42.9804 17.7476 44.6506 24.041C44.9007 24.985 45.0217 25.9613 45.2073 26.9537C46.2158 26.9456 47.2647 26.9456 48.3459 26.9456Z" fill="#E73638"/>
<path d="M24.9959 23.7425C27.2147 23.7505 29.0221 25.5579 29.0221 27.7767C29.0221 30.0116 27.1905 31.8189 24.9556 31.8109C22.7448 31.7947 20.9456 29.9713 20.9536 27.7525C20.9617 25.5417 22.7771 23.7344 24.9959 23.7425ZM25.004 30.1891C26.3272 30.1811 27.4084 29.0918 27.4084 27.7686C27.4084 26.4454 26.3191 25.3561 24.9959 25.3561C23.6566 25.3561 22.5673 26.4534 22.5754 27.8009C22.5835 29.116 23.6808 30.1972 25.004 30.1891Z" fill="#37383D"/>
<path d="M30.668 26.9698C30.8051 26.9698 30.91 26.9698 31.0149 26.9698C31.9428 26.9698 32.8706 26.9698 33.8308 26.9698C33.8308 27.5024 33.8308 28.0187 33.8308 28.5593C32.79 28.5593 31.7491 28.5593 30.668 28.5593C30.668 28.051 30.668 27.5346 30.668 26.9698Z" fill="#37383D"/>
</g>
<defs>
<clipPath id="clip0_308_1841">
<rect width="50" height="38.7203" fill="white" transform="translate(0 6)"/>
</clipPath>
</defs>
</svg>
