<svg width="50" height="50" viewBox="0 0 50 50" fill="none" xmlns="http://www.w3.org/2000/svg">
<g clip-path="url(#clip0_308_2364)">
<g clip-path="url(#clip1_308_2364)">
<path d="M19.4931 41.2442C19.4124 40.7373 19.3318 40.2535 19.2396 39.712C19.8387 39.5968 20.4147 39.4585 20.9908 39.3664C21.3249 39.3203 21.4286 39.1705 21.4746 38.8479C22.0622 34.7465 22.7189 30.6567 23.2373 26.5438C23.3871 25.3917 23.1452 24.182 23.0645 22.8341C22.8456 23.076 22.7304 23.1797 22.6267 23.3065C21.5553 24.712 20.4723 26.106 19.424 27.5346C18.9516 28.1682 18.3871 28.5253 17.5806 28.5253C17.0622 28.5253 16.5438 28.6175 16.0253 28.629C15.3456 28.6636 14.8387 28.3525 14.5161 27.765C14.2051 27.1889 14.2627 26.6129 14.6428 26.0829C16.7972 23.1336 18.917 20.1728 21.129 17.2811C21.6129 16.6475 22.4078 16.2327 23.1221 15.6797C22.3848 14.8041 22.0161 13.6521 22.2696 12.3502C22.4424 11.4747 22.8571 10.7258 23.5253 10.1382C24.8387 8.95161 26.8203 8.75576 28.2834 9.65438C30.0115 10.7143 30.576 12.3848 29.9424 14.8502C30.8064 14.182 31.6014 13.5714 32.3848 12.9608C33.5599 12.0392 34.735 11.106 35.9217 10.1843C36.947 9.3894 37.8571 9.53917 38.606 10.6106C38.8479 10.9562 39.0899 11.3018 39.3203 11.659C39.8963 12.5461 39.7696 13.3871 38.917 14.0323C36.7051 15.7258 34.4931 17.4194 32.2696 19.0783C31.8203 19.4124 31.6129 19.7235 31.7396 20.3111C31.924 21.2327 31.97 22.1774 32.1313 23.0991C32.1659 23.318 32.3617 23.5714 32.5576 23.6866C33.4447 24.182 34.3433 24.6659 35.2535 25.1037C35.8756 25.4032 36.2212 25.8641 36.4055 26.5207C36.8203 27.9724 37.2581 29.424 37.7304 30.9908C39.3664 29.5277 40.8064 27.9954 42.1198 26.2558C41.4401 26.0829 40.8064 25.9677 40.2189 25.7373C39.9309 25.6221 39.5852 25.2995 39.5392 25.023C39.4931 24.7811 39.7581 24.3548 40 24.2166C42.3502 22.8687 44.712 21.5668 47.0852 20.265C47.6843 19.9309 48.1912 20.1728 48.3525 20.8525C48.894 23.2258 49.424 25.6106 49.9424 27.9839C50.0806 28.629 49.5276 29.1129 48.894 28.9286C48.4562 28.8018 48.0069 28.6751 47.5806 28.5023C47.212 28.341 47.0161 28.4447 46.7742 28.7673C45.5876 30.3917 44.4355 32.0507 43.1567 33.606C39.6313 37.9263 35.5415 41.6129 30.6336 44.3203C26.5092 46.6014 22.1083 47.9608 17.4078 48.318C17.2811 48.3295 17.1429 48.318 16.947 48.318C16.924 47.8111 16.9009 47.3157 16.8779 46.7627C17.5346 46.6935 18.1797 46.6244 18.8134 46.5438C24.4009 45.8641 29.3664 43.6521 33.8594 40.3341C38.5023 36.9124 42.2235 32.6152 45.4493 27.8687C45.5184 27.7765 45.576 27.6728 45.6336 27.5806C46.371 26.4631 46.4631 26.3825 47.6728 26.8318C47.7534 26.8664 47.8571 26.8664 48.053 26.9124C47.6958 25.3111 47.3502 23.7673 46.9931 22.1544C45.4954 22.9954 44.0668 23.7903 42.5115 24.6429C42.9723 24.7696 43.2834 24.8502 43.5829 24.9424C44.3318 25.1728 44.5737 25.7373 44.0553 26.3479C42.5576 28.1106 41.1175 29.9539 39.447 31.5553C34.0207 36.7742 27.5346 39.9309 20.1152 41.1751C19.9654 41.2097 19.7581 41.2212 19.4931 41.2442ZM37.1774 11.3018C36.9816 11.4516 36.8088 11.5783 36.6475 11.7051C34.6313 13.2834 32.6382 14.8618 30.6106 16.4171C30.265 16.682 29.7926 16.8433 29.3664 16.8894C27.6498 17.0737 25.9217 17.212 24.2051 17.3387C23.3986 17.3963 22.7765 17.765 22.3157 18.3986C20.3341 21.106 18.341 23.8134 16.3594 26.5323C16.2673 26.659 16.1866 26.8088 16.0484 27.0277C16.5092 26.9931 16.8664 26.924 17.2235 26.9355C17.7419 26.947 18.053 26.7166 18.3525 26.3134C19.8387 24.3088 21.371 22.3387 22.8802 20.3456C23.1336 20.0115 23.3986 19.712 23.8825 19.8387C24.3779 19.9654 24.4931 20.3687 24.5276 20.818C24.6198 21.947 24.7235 23.076 24.7926 24.2051C24.8502 25.0691 24.9885 25.9447 24.8733 26.7857C24.4355 30.1152 23.917 33.4332 23.4332 36.7512C23.3295 37.4424 23.2373 38.1336 23.1336 38.9055C23.8018 38.7097 24.3433 38.5138 24.8963 38.3756C25.288 38.2834 25.4493 38.0991 25.5184 37.6843C26.129 34.0553 26.7627 30.4263 27.4078 26.7972C27.5576 25.9217 28.0184 25.7028 28.8018 26.0829C30.0115 26.659 31.2442 27.212 32.4078 27.8687C32.8226 28.0991 33.1912 28.5599 33.3871 28.9977C33.8479 30.0922 34.1935 31.2327 34.5968 32.3502C34.7005 32.6498 34.8272 32.9378 34.9654 33.2719C35.4147 32.9263 35.8064 32.6613 36.1521 32.3387C36.2788 32.2235 36.3479 31.947 36.3018 31.7742C35.864 30.2189 35.4147 28.6751 34.9193 27.1429C34.8272 26.8548 34.5622 26.5553 34.2972 26.4055C33.2949 25.841 32.2465 25.3571 31.2442 24.7811C30.9677 24.6198 30.7028 24.2627 30.6567 23.9516C30.4147 22.5 30.265 21.0253 30.0576 19.5622C29.977 19.0207 30.1498 18.6521 30.5876 18.3295C32.1889 17.1313 33.7673 15.9217 35.3571 14.712C36.2558 14.0323 37.1544 13.341 38.076 12.6267C37.7765 12.1889 37.4885 11.7627 37.1774 11.3018ZM27.1659 37.5806C29.4124 36.6936 31.417 35.6567 33.3064 34.4009C33.4101 34.3318 33.4562 34.0323 33.4101 33.8825C32.9263 32.4654 32.4193 31.0599 31.9124 29.6544C31.8664 29.5392 31.8088 29.3779 31.7051 29.3318C30.7719 28.8594 29.8387 28.4101 28.8479 27.9147C28.2834 31.1521 27.7304 34.2972 27.1659 37.5806ZM26.2788 15.53C27.6152 15.53 28.6866 14.447 28.6866 13.1106C28.6866 11.7742 27.6037 10.6912 26.2673 10.7028C24.9193 10.7143 23.8594 11.7857 23.8594 13.1221C23.8594 14.4585 24.9424 15.53 26.2788 15.53Z" fill="#37383D"/>
<path d="M16.636 36.5899C16.3595 36.924 16.1176 37.2236 15.8641 37.5231C15.6567 37.7535 15.3802 37.9033 15.5646 38.3411C15.7489 38.7443 16.0254 38.6521 16.3134 38.6637C16.4862 38.6752 16.659 38.6637 16.8319 38.6637C17.4194 38.6867 17.7305 38.9747 17.742 39.5508C17.7535 40.5646 17.7535 41.5899 17.742 42.6038C17.7305 43.1913 17.4309 43.4793 16.8434 43.5024C16.5899 43.5139 16.3365 43.4563 16.0945 43.5254C15.8987 43.583 15.6567 43.7213 15.5761 43.8941C15.507 44.0438 15.5761 44.3549 15.6913 44.4586C16.9931 45.6107 16.5899 45.9448 15.6452 46.8434C15.1153 47.3503 14.6199 47.8803 14.0899 48.3872C13.6291 48.8365 13.2143 48.8365 12.742 48.3872C12.5807 48.2259 12.4424 48.0185 12.2466 47.9148C12.0623 47.8227 11.7973 47.7535 11.613 47.8227C11.4632 47.8803 11.2789 48.1452 11.2904 48.3065C11.3941 50.0922 10.8065 49.9886 9.56227 49.954C8.84798 49.9425 8.14521 49.954 7.43093 49.954C6.71664 49.9425 6.44015 49.6545 6.42863 48.9286C6.42863 48.7213 6.47471 48.4909 6.4171 48.295C6.34798 48.0992 6.19821 47.8687 6.0254 47.7881C5.87563 47.719 5.56457 47.7881 5.46088 47.9148C4.48162 49.0208 4.10144 48.9517 3.11065 47.8918C2.61526 47.3618 2.08531 46.8549 1.56687 46.3365C1.083 45.8411 1.083 45.4379 1.55535 44.9425C1.71664 44.7812 1.92402 44.6429 2.0277 44.4471C2.11987 44.2858 2.18899 44.0208 2.11987 43.871C2.06227 43.7097 1.82033 43.6176 1.65904 43.5024C1.64752 43.4909 1.62448 43.5024 1.60144 43.5024C-0.149716 43.6176 -0.0575503 43.0415 -0.0345088 41.8319C-0.0229881 41.1061 -0.0345088 40.3687 -0.0345088 39.6429C-0.0229881 38.9517 0.26503 38.6752 0.956275 38.6637C1.18669 38.6637 1.42862 38.7097 1.64752 38.6521C1.83185 38.6061 2.05074 38.4563 2.11987 38.295C2.18899 38.1337 2.14291 37.8457 2.0277 37.719C0.921712 36.4632 0.921712 36.4632 2.07379 35.2996C2.56918 34.7927 3.07609 34.2973 3.583 33.7904C4.06687 33.318 4.48162 33.318 4.97701 33.7904C5.1383 33.9517 5.27655 34.1591 5.4724 34.2627C5.63369 34.3549 5.89867 34.4125 6.04844 34.3434C6.20973 34.2743 6.40558 34.0323 6.39406 33.871C6.26733 32.0623 6.88945 32.166 8.15674 32.2005C8.81342 32.2121 9.45858 32.2005 10.1153 32.2005C11.0139 32.2005 11.2558 32.454 11.2558 33.3756C11.2558 33.5254 11.2097 33.6982 11.2673 33.8365C11.348 34.0323 11.4632 34.2743 11.636 34.3549C11.7858 34.424 12.1083 34.3779 12.212 34.2512C13.3641 32.9379 13.7213 33.3641 14.6429 34.3203C15.1383 34.8273 15.6567 35.3227 16.1406 35.8411C16.3595 36.0254 16.4632 36.2789 16.636 36.5899ZM3.15674 36.5439C4.18208 37.1775 4.17056 37.8918 3.73277 38.9402C3.30651 39.9309 2.8572 40.4494 1.77425 40.2766C1.73968 40.2766 1.70512 40.2996 1.65904 40.3227C1.65904 40.8296 1.65904 41.325 1.65904 41.8549C1.80881 41.8664 1.92402 41.8664 2.0277 41.878C3.1913 41.901 3.1913 41.8895 3.57148 42.9839C3.60604 43.0761 3.61756 43.1798 3.67517 43.2489C4.35489 44.1591 4.12448 44.9079 3.27194 45.5531C3.2489 45.5646 3.26042 45.6222 3.2489 45.6452C3.59452 46.0024 3.94015 46.3595 4.33185 46.7743C4.93093 45.9793 5.51849 45.6337 6.57839 46.1521C7.5807 46.636 8.38715 46.9701 8.03001 48.2835C8.62908 48.2835 9.136 48.2835 9.72356 48.2835C9.44706 47.1199 10.0001 46.6591 11.0369 46.2213C12.0507 45.795 12.7189 45.8065 13.3526 46.6706C13.3641 46.6936 13.4217 46.6936 13.3871 46.6821C13.7904 46.325 14.1706 45.9909 14.6199 45.5876C14.401 45.4033 14.2397 45.265 14.0784 45.1268C13.606 44.7236 13.5024 44.2743 13.848 43.7097C14.0554 43.3756 14.1706 42.9724 14.2973 42.5922C14.4471 42.0968 14.7696 41.8664 15.2766 41.878C15.5531 41.8895 15.8295 41.878 16.0945 41.878C16.0945 41.2904 16.0945 40.7835 16.0945 40.265C15.8411 40.265 15.6222 40.265 15.4148 40.265C14.6775 40.265 14.4931 40.1268 14.2627 39.4125C14.2166 39.2858 14.2051 39.1475 14.1245 39.0323C13.5024 38.0761 13.4448 37.2121 14.5623 36.5784C14.159 36.1521 13.8134 35.772 13.4102 35.3342C12.765 36.3826 12.0507 36.348 11.0024 35.9217C9.98853 35.507 9.51618 35.0346 9.66595 33.9632C9.66595 33.9286 9.63139 33.8941 9.60835 33.8595C9.10144 33.8595 8.59452 33.8595 8.07609 33.8595C8.06457 33.9862 8.06457 34.0784 8.05305 34.1821C8.03001 35.3918 8.03001 35.3918 6.88945 35.8065C6.82033 35.8296 6.73969 35.8411 6.67056 35.8872C5.76042 36.5669 5.01157 36.325 4.36641 35.4724C4.35489 35.4494 4.29729 35.4609 4.27425 35.4609C3.94015 35.8065 3.583 36.1521 3.15674 36.5439Z" fill="#37383D"/>
<path d="M40.5876 10.2765C40.7259 9.44705 40.8526 8.583 41.0139 7.70742C41.0715 7.3618 41.0254 7.09682 40.7489 6.83184C40.1959 6.30189 39.6429 5.76041 39.1475 5.18438C38.9402 4.93092 38.7674 4.53922 38.7904 4.22816C38.825 3.80189 39.2397 3.66364 39.6545 3.60604C40.3918 3.51387 41.1406 3.42171 41.8664 3.26041C42.0968 3.21433 42.3733 3.00696 42.4886 2.79959C42.8803 2.07378 43.1683 1.29037 43.583 0.576083C43.7443 0.299585 44.113 -0.0114746 44.378 -0.0114746C44.6545 -0.0114746 45.0116 0.311106 45.1729 0.587604C45.5761 1.27885 45.8987 2.0277 46.2098 2.76502C46.3595 3.11065 46.5784 3.24889 46.9471 3.28346C47.6844 3.3641 48.4333 3.45627 49.1591 3.62908C49.4586 3.6982 49.8388 3.92862 49.9309 4.18207C50.0231 4.43553 49.8733 4.8618 49.6775 5.09221C49.1706 5.69129 48.6061 6.24429 48.0415 6.78576C47.7651 7.05074 47.6729 7.32724 47.742 7.6959C47.8918 8.49083 48.0415 9.28576 48.1107 10.0807C48.1337 10.4033 48.03 10.8641 47.8111 11.0254C47.5922 11.1867 47.1199 11.1291 46.8203 11.0023C46.1176 10.6913 45.4609 10.2996 44.7927 9.90788C44.4816 9.72355 44.2512 9.74659 43.9517 9.9194C43.2374 10.3341 42.5116 10.7374 41.7743 11.106C41.1406 11.4401 40.5415 11.0139 40.5876 10.2765ZM44.3319 2.74198C44.1245 3.17977 43.9402 3.53691 43.7904 3.9171C43.5715 4.48161 43.1913 4.76963 42.5807 4.81571C42.1545 4.85028 41.7397 4.96548 41.325 5.03461C41.3019 5.09221 41.2674 5.14982 41.2443 5.20742C41.613 5.54152 41.9932 5.8641 42.3618 6.1982C42.7074 6.50926 42.8111 6.87793 42.7074 7.33876C42.5922 7.81111 42.5462 8.3065 42.454 8.90558C42.9379 8.65212 43.318 8.46779 43.6637 8.24889C44.136 7.93783 44.5738 7.92631 45.0577 8.23737C45.4148 8.46779 45.8065 8.6406 46.2789 8.89405C46.1867 8.31802 46.1637 7.85719 46.0485 7.4194C45.9102 6.88945 46.0485 6.4747 46.4517 6.12908C46.8204 5.81802 47.189 5.53 47.5577 5.21894C46.7282 4.89636 45.9448 4.90788 45.4379 4.53922C44.9309 4.15903 44.7236 3.41018 44.3319 2.74198Z" fill="#E73638"/>
<path d="M2.44243 2.37326C2.44243 1.85483 2.44243 1.34792 2.44243 0.794922C2.97238 0.794922 3.46777 0.794922 4.04381 0.794922C4.04381 1.32488 4.04381 1.84331 4.04381 2.37326L4.05533 2.36174C3.51386 2.36174 2.97238 2.36174 2.43091 2.36174L2.44243 2.37326Z" fill="#37383D"/>
<path d="M2.44248 3.97472C1.92404 3.97472 1.41713 3.97472 0.864136 3.97472C0.864136 3.44477 0.864136 2.94937 0.864136 2.37334C1.39409 2.37334 1.92404 2.37334 2.44248 2.37334L2.43096 2.36182C2.43096 2.90329 2.43096 3.44477 2.43096 3.98624L2.44248 3.97472Z" fill="#37383D"/>
<path d="M4.03235 2.37334C4.55078 2.37334 5.05769 2.37334 5.61069 2.37334C5.61069 2.90329 5.61069 3.39868 5.61069 3.97472C5.08074 3.97472 4.5623 3.97472 4.03235 3.97472L4.04387 3.98624C4.04387 3.44477 4.04387 2.90329 4.04387 2.36182L4.03235 2.37334Z" fill="#37383D"/>
<path d="M8.89409 4.7927C8.89409 4.27426 8.89409 3.76735 8.89409 3.21436C9.42404 3.21436 9.91943 3.21436 10.4955 3.21436C10.4955 3.74431 10.4955 4.26274 10.4955 4.7927L10.507 4.78118C9.96552 4.78118 9.42404 4.78118 8.88257 4.78118L8.89409 4.7927Z" fill="#37383D"/>
<path d="M4.03234 3.97473C4.03234 4.49316 4.03234 5.00008 4.03234 5.55307C3.50238 5.55307 3.00699 5.55307 2.43095 5.55307C2.43095 5.02312 2.43095 4.49316 2.43095 3.97473L2.41943 3.98625C2.96091 3.98625 3.50238 3.98625 4.04386 3.98625L4.03234 3.97473Z" fill="#37383D"/>
<path d="M8.89401 6.39403C8.37558 6.39403 7.86867 6.39403 7.31567 6.39403C7.31567 5.86408 7.31567 5.36869 7.31567 4.79265C7.84563 4.79265 8.37558 4.79265 8.89401 4.79265L8.88249 4.78113C8.88249 5.3226 8.88249 5.86408 8.88249 6.40555L8.89401 6.39403Z" fill="#37383D"/>
<path d="M10.4839 4.79265C11.0023 4.79265 11.5092 4.79265 12.0622 4.79265C12.0622 5.3226 12.0622 5.81799 12.0622 6.39403C11.5323 6.39403 11.0138 6.39403 10.4839 6.39403L10.4954 6.40555C10.4954 5.86408 10.4954 5.3226 10.4954 4.78113L10.4839 4.79265Z" fill="#37383D"/>
<path d="M10.484 6.39404C10.484 6.91248 10.484 7.41939 10.484 7.97238C9.95404 7.97238 9.45865 7.97238 8.88261 7.97238C8.88261 7.44243 8.88261 6.91248 8.88261 6.39404L8.87109 6.40556C9.41257 6.40556 9.95404 6.40556 10.4955 6.40556L10.484 6.39404Z" fill="#37383D"/>
<path d="M45.9908 45.9217C45.9908 45.4033 45.9908 44.8964 45.9908 44.3434C46.5207 44.3434 47.0161 44.3434 47.5922 44.3434C47.5922 44.8733 47.5922 45.3918 47.5922 45.9217L47.6037 45.9102C47.0622 45.9102 46.5207 45.9102 45.9792 45.9102L45.9908 45.9217Z" fill="#37383D"/>
<path d="M45.9909 47.5231C45.4725 47.5231 44.9656 47.5231 44.4126 47.5231C44.4126 46.9931 44.4126 46.4977 44.4126 45.9217C44.9426 45.9217 45.4725 45.9217 45.9909 45.9217L45.9794 45.9102C45.9794 46.4516 45.9794 46.9931 45.9794 47.5346L45.9909 47.5231Z" fill="#37383D"/>
<path d="M47.5808 45.9217C48.0992 45.9217 48.6062 45.9217 49.1592 45.9217C49.1592 46.4516 49.1592 46.947 49.1592 47.5231C48.6292 47.5231 48.1108 47.5231 47.5808 47.5231L47.5923 47.5346C47.5923 46.9931 47.5923 46.4516 47.5923 45.9102L47.5808 45.9217Z" fill="#37383D"/>
<path d="M47.5807 47.5231C47.5807 48.0415 47.5807 48.5484 47.5807 49.1014C47.0507 49.1014 46.5553 49.1014 45.9793 49.1014C45.9793 48.5715 45.9793 48.0415 45.9793 47.5231L45.9678 47.5346C46.5092 47.5346 47.0507 47.5346 47.5922 47.5346L47.5807 47.5231Z" fill="#37383D"/>
<path d="M4.85034 41.0599C4.86186 38.8479 6.68214 37.0392 8.89412 37.0507C11.1176 37.0622 12.9149 38.871 12.9149 41.0945C12.9033 43.3065 11.0831 45.1152 8.87108 45.1152C6.64758 45.1037 4.85034 43.2834 4.85034 41.0599ZM11.302 41.0945C11.3135 39.7696 10.219 38.6751 8.89412 38.6636C7.56924 38.6521 6.47477 39.7466 6.46325 41.0715C6.45172 42.3963 7.54619 43.4908 8.87108 43.5023C10.196 43.5023 11.2904 42.4079 11.302 41.0945Z" fill="#37383D"/>
</g>
</g>
<defs>
<clipPath id="clip0_308_2364">
<rect width="50" height="50" fill="white"/>
</clipPath>
<clipPath id="clip1_308_2364">
<rect width="50" height="49.9654" fill="white"/>
</clipPath>
</defs>
</svg>
