<svg width="47" height="50" viewBox="0 0 47 50" fill="none" xmlns="http://www.w3.org/2000/svg">
<g clip-path="url(#clip0_308_4072)">
<path d="M8.2933 8.32462C8.2933 7.17855 8.2933 6.10541 8.2933 4.99059C8.01199 4.99059 7.75152 5.00101 7.50147 4.99059C6.87634 4.94891 6.53252 4.46965 6.70964 3.86535C6.95969 3.05269 7.23058 2.25044 7.51189 1.44818C7.63691 1.06269 7.9078 0.854311 8.32456 0.823054C11.4398 0.614678 14.555 0.406301 17.6807 0.197924C18.6184 0.135411 19.5456 0.0624792 20.4833 0.010385C21.3585 -0.0417092 21.6607 0.239599 21.6711 1.10436C21.6711 2.02122 21.6711 2.9485 21.6711 3.86535C21.6711 4.74054 21.4002 5.00101 20.5146 5.00101C18.8684 5.00101 17.2118 5.00101 15.5656 5.00101C15.3989 5.00101 15.2218 5.00101 15.0343 5.00101C15.0343 6.11582 15.0343 7.18896 15.0343 8.33504C15.2843 8.33504 15.5344 8.33504 15.7844 8.33504C16.2741 8.34546 16.5867 8.59551 16.6596 9.06435C16.9409 10.8251 17.2118 12.5859 17.4931 14.3467C17.514 14.4822 17.6598 14.628 17.7849 14.7009C20.7438 16.4409 22.5359 18.9831 23.1818 22.3588C23.4319 23.6507 23.2548 24.9114 23.0776 26.1825C22.9422 27.1202 22.8276 28.0683 22.6921 29.0685C23.2339 28.9018 23.7132 28.7143 24.2133 28.6205C24.9947 28.4851 25.7865 28.3809 26.5784 28.3392C27.266 28.2975 27.6098 28.7351 27.464 29.4123C27.3598 29.8604 27.5577 30.1625 27.912 30.2979C28.5163 30.5272 29.1518 30.6834 29.8915 30.8918C29.7353 29.652 29.5998 28.5788 29.454 27.4953C29.0893 24.7968 28.683 22.0983 28.3808 19.3998C28.2558 18.2121 28.3391 17.0035 28.3496 15.8053C28.36 15.3157 28.683 15.0239 29.1935 14.9927C29.3185 14.9823 29.4331 14.9927 29.5581 14.9927C34.8718 14.9927 40.1854 14.9927 45.499 14.9927C46.4471 14.9927 46.645 15.2427 46.6971 16.2013C46.8534 19.1915 46.2908 22.1087 45.9053 25.0469C45.3844 29.0894 44.8322 33.1319 44.2904 37.164C43.9987 39.3623 43.6652 41.5607 43.436 43.7695C43.3214 44.9052 43.3631 46.0512 43.3527 47.1973C43.3423 48.9998 42.3421 49.9895 40.5396 49.9895C28.9955 49.9895 17.4515 49.9895 5.90739 49.9895C4.27163 49.9895 3.34435 49.1456 3.12556 47.5203C2.34414 41.6545 1.55231 35.7991 0.7709 29.9333C0.520848 28.0891 0.197864 26.2554 0.0520008 24.4113C-0.114701 22.2754 0.520848 20.2959 1.62525 18.4726C2.53168 16.9827 3.74027 15.7637 5.26142 14.8885C5.66775 14.6489 5.83446 14.4196 5.89697 13.9195C6.04283 12.6068 6.31372 11.3148 6.53252 10.0229C6.57419 9.80409 6.60545 9.57488 6.64712 9.35608C6.81383 8.47048 6.98053 8.32462 7.88697 8.3142C7.98074 8.32462 8.11618 8.32462 8.2933 8.32462ZM14.1591 36.643C14.1591 35.8824 14.1591 35.1531 14.1591 34.4238C14.1591 33.6216 14.4196 33.3507 15.201 33.3298C16.1699 33.2986 17.1076 33.0798 17.8995 32.5172C18.7642 31.9024 19.5665 31.2148 20.4104 30.5897C20.7334 30.35 20.8793 30.0791 20.9209 29.6937C21.0355 28.7143 21.1918 27.7349 21.3064 26.7555C21.4315 25.7032 21.6607 24.6509 21.619 23.6091C21.4523 19.9416 18.9518 16.7326 15.4823 15.5136C13.9403 14.9718 12.3462 14.9927 10.7521 15.0135C6.93885 15.0448 3.55273 17.4203 2.22954 21.0043C1.8232 22.0983 1.55231 23.2444 1.69818 24.4217C1.92739 26.37 2.21912 28.3079 2.47959 30.2458C3.24016 35.9554 4.00074 41.6545 4.76131 47.364C4.8655 48.1454 5.10514 48.3538 5.87613 48.3538C7.67859 48.3538 9.49147 48.3538 11.2939 48.3538C11.4398 48.3538 11.5857 48.333 11.7107 48.333C11.6898 47.9475 11.6586 47.6036 11.6586 47.2598C11.6586 44.6343 11.6586 42.0191 11.6586 39.3936C11.6586 37.7162 12.4608 36.8201 14.1591 36.643ZM30.1208 20.025C30.2562 21.046 30.3812 22.0254 30.5167 23.0048C30.8501 25.5157 31.1835 28.0266 31.5377 30.5376C31.5586 30.6939 31.7044 30.9127 31.8503 30.9752C33.3089 31.5795 34.1529 32.8089 34.1633 34.4134C34.1633 35.1531 34.1633 35.9033 34.1633 36.6326C35.9032 36.8514 36.6638 37.7162 36.6638 39.4144C36.6638 39.9354 36.6638 40.4563 36.6638 40.9773C36.6638 41.7482 36.6638 42.5297 36.6638 43.3007C38.4037 43.3007 40.0812 43.3007 41.769 43.3007C42.8005 35.5386 43.832 27.7974 44.8738 20.025C39.9561 20.025 35.0697 20.025 30.1208 20.025ZM24.1508 48.333C27.4119 48.333 30.673 48.333 33.9341 48.333C34.7676 48.333 34.9864 48.1142 34.9864 47.2911C34.9864 44.6551 34.9864 42.0191 34.9864 39.3832C34.9864 38.5601 34.7676 38.3413 33.9445 38.3413C27.4223 38.3413 20.9001 38.3413 14.3675 38.3413C13.534 38.3413 13.3152 38.5601 13.3152 39.3832C13.3152 42.0191 13.3152 44.6551 13.3152 47.2911C13.3152 48.1246 13.534 48.333 14.3571 48.333C17.6286 48.333 20.8897 48.333 24.1508 48.333ZM32.465 35.0385C26.9013 35.0385 21.3794 35.0385 15.8678 35.0385C15.8678 35.6011 15.8678 36.1325 15.8678 36.643C21.421 36.643 26.9326 36.643 32.465 36.643C32.465 36.1012 32.465 35.5803 32.465 35.0385ZM30.0374 16.6701C30.0374 17.2119 30.0374 17.7537 30.0374 18.2954C35.028 18.2954 39.9978 18.2954 44.9572 18.2954C44.9572 17.7328 44.9572 17.2119 44.9572 16.6701C39.9666 16.6701 35.028 16.6701 30.0374 16.6701ZM15.1176 10.0437C12.7526 10.0437 10.4813 10.0437 8.17869 10.0437C8.00157 11.1481 7.82445 12.2213 7.64733 13.2944C10.3562 13.2944 12.9818 13.2944 15.6594 13.2944C15.4719 12.1796 15.2948 11.1064 15.1176 10.0437ZM25.7761 30.0896C23.9632 30.0791 20.8584 31.7878 19.8686 33.2986C23.9528 33.2986 28.037 33.2986 32.1733 33.2986C31.8607 32.7255 31.4127 32.538 30.8397 32.4859C29.9124 32.4025 28.9643 32.3505 28.0578 32.1421C26.9639 31.9024 26.0887 31.2982 25.7761 30.0896ZM36.643 48.333C38.0182 48.333 39.4248 48.3434 40.8209 48.333C41.2585 48.333 41.5919 48.0829 41.6232 47.6557C41.6753 46.7805 41.6336 45.9054 41.6336 45.0302C39.9457 45.0302 38.3204 45.0302 36.6325 45.0302C36.643 46.1242 36.643 47.1973 36.643 48.333ZM19.9624 1.73991C19.5769 1.76075 19.2122 1.77117 18.858 1.79201C15.774 1.98996 12.6901 2.19834 9.61649 2.3963C8.86634 2.44839 8.83508 2.46923 8.73089 3.29232C12.4713 3.29232 16.2116 3.29232 19.9728 3.29232C19.9624 2.77138 19.9624 2.28169 19.9624 1.73991ZM10.0124 8.29336C11.1272 8.29336 12.2108 8.29336 13.2839 8.29336C13.2839 7.17854 13.2839 6.09499 13.2839 5.02185C12.1795 5.02185 11.1064 5.02185 10.0124 5.02185C10.0124 6.11582 10.0124 7.17854 10.0124 8.29336Z" fill="#37383D"/>
<path d="M11.596 27.4953C10.0228 27.4953 8.4391 27.4953 6.86586 27.4953C6.1157 27.4953 5.82397 27.2036 5.82397 26.4638C5.82397 24.9427 5.82397 23.4111 5.82397 21.8899C5.82397 21.1294 6.1157 20.8376 6.84502 20.8376C10.054 20.8376 13.263 20.8376 16.472 20.8376C17.1909 20.8376 17.4827 21.1398 17.4931 21.8483C17.5035 23.3903 17.4931 24.9323 17.4931 26.4742C17.4931 27.214 17.1909 27.5057 16.4408 27.5057C14.8259 27.5057 13.2109 27.4953 11.596 27.4953ZM7.49099 25.7866C10.2624 25.7866 13.0234 25.7866 15.7844 25.7866C15.7844 24.6926 15.7844 23.6091 15.7844 22.5359C13.0026 22.5359 10.2624 22.5359 7.50141 22.5359C7.49099 22.6609 7.49099 22.7443 7.49099 22.8276C7.49099 23.7966 7.49099 24.776 7.49099 25.7866Z" fill="#E73638"/>
<path d="M37.3723 28.433C36.6221 28.2455 35.7678 28.0579 34.9343 27.8079C34.6113 27.7141 34.3195 27.4849 34.0591 27.2661C33.0797 26.4326 33.0797 25.2344 34.0487 24.3905C34.7884 23.7549 35.674 23.4945 36.6221 23.3799C37.9974 23.2236 39.331 23.3486 40.5396 24.0884C42.0399 25.0156 42.0399 26.6201 40.5396 27.5578C40.2375 27.7454 39.8936 27.9225 39.5498 28.0058C38.883 28.183 38.2058 28.2767 37.3723 28.433ZM35.0176 25.8283C35.674 26.9535 39.4769 26.9014 39.9666 25.797C38.9872 24.7135 35.872 24.7343 35.0176 25.8283Z" fill="#E73638"/>
<path d="M27.4953 43.3424C27.4953 45.1761 25.9845 46.6764 24.1404 46.666C22.3171 46.6556 20.8376 45.1657 20.8272 43.3528C20.8168 41.5087 22.3171 39.9979 24.1508 39.9979C25.9949 39.9979 27.4953 41.4982 27.4953 43.3424ZM25.8178 43.3632C25.8282 42.4568 25.1093 41.6962 24.1925 41.6754C23.2652 41.6545 22.4942 42.4047 22.4838 43.332C22.4838 44.2384 23.2235 44.9885 24.13 44.999C25.0364 45.0094 25.8074 44.2592 25.8178 43.3632Z" fill="#E73638"/>
</g>
<defs>
<clipPath id="clip0_308_4072">
<rect width="46.6972" height="50" fill="white"/>
</clipPath>
</defs>
</svg>
