<svg width="50" height="50" viewBox="0 0 50 50" fill="none" xmlns="http://www.w3.org/2000/svg">
<g clip-path="url(#clip0_308_2283)">
<path d="M10.0357 34.3845C6.12855 26.1907 9.39937 17.7736 15.0256 13.6433C21.0538 9.21147 29.0913 9.24496 35.0413 13.6991C40.6787 17.9188 43.782 26.2688 39.9531 34.418C40.8684 34.5519 41.7615 34.7194 42.6546 34.8199C44.396 34.9985 46.1375 35.1548 47.8789 35.2999C48.6492 35.3669 49.0622 35.6124 49.252 36.2153C49.453 36.8516 49.1404 37.2869 48.6939 37.6665C47.678 38.5149 46.6733 39.3633 45.6463 40.1894C45.3002 40.4684 45.1886 40.6917 45.3672 41.1494C46.0035 42.7122 46.584 44.3086 47.1645 45.8938C47.5887 47.0659 46.8742 47.892 45.6463 47.7134C40.2545 46.9431 35.0859 45.4137 30.1294 43.1699C29.9062 43.0695 29.5824 43.036 29.348 43.0918C26.4344 43.8397 23.532 43.8286 20.6296 43.0806C20.4063 43.0248 20.116 43.0695 19.9039 43.1699C14.9252 45.4361 9.73426 46.9431 4.33127 47.7245C3.1703 47.892 2.44469 47.0547 2.84657 45.9496C3.43822 44.3198 4.04103 42.7122 4.67733 41.0936C4.82245 40.7252 4.80013 40.5131 4.47639 40.2563C3.42705 39.4191 2.4112 38.5484 1.38419 37.6888C0.770209 37.1753 0.580434 36.7064 0.792535 36.1483C1.03813 35.4897 1.5628 35.3334 2.1991 35.2776C4.67733 35.032 7.15556 34.7529 9.62263 34.485C9.73426 34.4738 9.85706 34.4292 10.0357 34.3845ZM25.0167 12.0023C16.7559 11.9911 10.0468 18.6667 10.0022 26.961C9.95753 35.2217 16.7113 41.9866 24.9944 41.9978C33.2663 42.009 39.9642 35.3334 40.0089 27.0391C40.0424 18.7672 33.311 12.0134 25.0167 12.0023ZM17.995 42.1764C17.9057 42.0983 17.8722 42.0425 17.8276 42.0201C15.0703 40.6917 12.8376 38.7381 11.1185 36.2041C11.0292 36.0701 10.7166 36.0032 10.5157 36.0255C9.07563 36.2153 7.64674 36.4497 6.20669 36.6395C5.21316 36.7734 4.21964 36.8404 3.09216 36.952C4.08568 37.7781 4.96757 38.526 5.87179 39.2517C5.99459 39.341 6.22902 39.341 6.39646 39.3075C7.60209 39.0842 8.80772 38.8498 10.0022 38.6154C10.6385 38.4926 11.0738 38.7047 11.1855 39.2182C11.2859 39.7093 11.018 40.0889 10.3929 40.2229C9.23192 40.4796 8.07095 40.714 6.89881 40.9261C6.58624 40.982 6.41879 41.0936 6.30716 41.395C5.91645 42.5001 5.49225 43.583 5.07921 44.6881C4.92292 45.1012 4.7778 45.5142 4.61035 45.9831C9.27657 45.3021 13.686 44.0072 17.995 42.1764ZM46.8854 36.9855C46.6733 36.9409 46.5617 36.9185 46.4612 36.8962C44.1058 36.5948 41.7392 36.2822 39.3837 36.0143C39.2051 35.992 38.9372 36.1483 38.8256 36.3046C37.1511 38.727 35.0189 40.6136 32.3844 41.9308C32.2616 41.9866 32.1611 42.0759 32.0049 42.1764C36.325 44.0183 40.7345 45.3021 45.3561 45.9942C45.3337 45.8714 45.3226 45.7821 45.2891 45.6928C44.7644 44.2974 44.2397 42.9132 43.7374 41.5178C43.6034 41.1382 43.3913 40.9931 42.9895 40.9261C41.8173 40.7252 40.6563 40.4796 39.4954 40.2229C38.9595 40.1001 38.7139 39.7093 38.8144 39.2405C38.9149 38.7605 39.3279 38.5149 39.8861 38.6154C40.0535 38.6488 40.2098 38.6935 40.3773 38.727C41.4489 38.9279 42.5318 39.14 43.6034 39.3298C43.7709 39.3633 44.0165 39.3745 44.1281 39.274C45.0323 38.5372 45.9254 37.7893 46.8854 36.9855Z" fill="#37383D"/>
<path d="M24.1684 4.90242C24.1684 4.25495 24.1572 3.60749 24.1684 2.94886C24.1795 2.34604 24.5256 1.97766 25.0279 1.99998C25.508 2.01115 25.8317 2.35721 25.8317 2.94886C25.8429 4.26611 25.8429 5.58337 25.8317 6.90063C25.8205 7.45879 25.4745 7.82718 25.0056 7.83834C24.5368 7.83834 24.1907 7.46995 24.1684 6.91179C24.146 6.242 24.1684 5.57221 24.1684 4.90242Z" fill="#37383D"/>
<path d="M2.89127 27.8317C2.2438 27.8317 1.59633 27.8428 0.937705 27.8317C0.368381 27.8205 -4.40577e-06 27.4968 -4.40577e-06 27.0279C-0.0111676 26.5256 0.368381 26.1795 0.960031 26.1795C2.25496 26.1684 3.56106 26.1684 4.85599 26.1795C5.4588 26.1795 5.81603 26.5144 5.81603 27.0168C5.81603 27.5191 5.4588 27.8317 4.83366 27.8317C4.1862 27.8317 3.53873 27.8317 2.89127 27.8317Z" fill="#37383D"/>
<path d="M47.053 27.8205C46.4056 27.8205 45.7581 27.8317 45.0995 27.8205C44.519 27.8093 44.1841 27.4856 44.1841 26.9944C44.1841 26.5032 44.5301 26.1683 45.0995 26.1572C46.4391 26.146 47.7675 26.146 49.1071 26.1572C49.6541 26.1683 50.0224 26.5367 50.0001 27.0167C49.989 27.4744 49.6429 27.8093 49.1071 27.8205C48.4261 27.8428 47.734 27.8205 47.053 27.8205Z" fill="#37383D"/>
<path d="M39.1047 13.8106C38.8368 13.5985 38.5242 13.4646 38.4349 13.2413C38.3344 12.9957 38.3456 12.5492 38.5019 12.3817C39.5177 11.2989 40.5671 10.2495 41.6388 9.22253C41.9402 8.93229 42.342 8.97694 42.6546 9.25602C42.9783 9.54627 43.0565 9.91465 42.8221 10.3054C42.7327 10.4505 42.61 10.5621 42.4983 10.6849C41.6388 11.5556 40.7792 12.4264 39.8973 13.2748C39.6964 13.4757 39.4284 13.5985 39.1047 13.8106Z" fill="#37383D"/>
<path d="M7.84761 8.95471C8.13785 9.13332 8.37228 9.22263 8.52857 9.37891C9.47744 10.2943 10.4151 11.232 11.3305 12.1697C11.7547 12.6051 11.7659 13.1074 11.3863 13.4535C11.0403 13.7772 10.5491 13.7437 10.1472 13.3419C9.22069 12.4265 8.28298 11.5222 7.41225 10.5622C7.21131 10.3389 7.122 9.88126 7.18898 9.56869C7.23363 9.34542 7.60202 9.17798 7.84761 8.95471Z" fill="#37383D"/>
<path d="M44.1728 19.984C43.9161 19.7272 43.6035 19.5263 43.4807 19.2472C43.3021 18.8788 43.4584 18.4769 43.8491 18.3095C44.6752 17.9299 45.5124 17.5616 46.3831 17.2936C46.6287 17.2155 47.0641 17.4388 47.265 17.662C47.5329 17.9634 47.4771 18.4658 47.1311 18.6444C46.2045 19.1244 45.2333 19.5151 44.1728 19.984Z" fill="#37383D"/>
<path d="M33.1212 8.58628C32.4514 8.57511 32.016 8.05044 32.2058 7.53693C32.5072 6.67737 32.8644 5.84013 33.2552 5.01405C33.4338 4.62334 33.8245 4.48938 34.2598 4.66799C34.6729 4.8466 34.8961 5.19266 34.751 5.6057C34.4385 6.47643 34.0812 7.336 33.6794 8.17324C33.5677 8.3965 33.244 8.49697 33.1212 8.58628Z" fill="#37383D"/>
<path d="M6.56395 18.8341C6.56395 19.5597 6.07276 19.995 5.54809 19.8053C4.68853 19.515 3.85129 19.1578 3.02521 18.7671C2.60101 18.5661 2.50054 18.1419 2.69031 17.7177C2.86892 17.3047 3.23731 17.1261 3.65035 17.2824C4.48759 17.5949 5.31367 17.9187 6.11742 18.3094C6.35184 18.4099 6.4858 18.7224 6.56395 18.8341Z" fill="#37383D"/>
<path d="M16.2537 4.61223C16.3876 4.73502 16.7002 4.90247 16.823 5.15922C17.1802 5.88483 17.4816 6.65509 17.7719 7.41419C17.9616 7.89421 17.7495 8.34074 17.3142 8.51935C16.9011 8.6868 16.4658 8.51935 16.2537 8.06166C15.9076 7.30256 15.5839 6.5323 15.2936 5.75087C15.0927 5.15922 15.4946 4.60106 16.2537 4.61223Z" fill="#37383D"/>
<path d="M16.957 36.8962C17.2026 35.445 17.4481 33.9826 17.6937 32.5202C17.8612 31.549 18.0175 30.5778 18.2072 29.6066C18.2742 29.2717 18.1849 29.0596 17.9505 28.8252C16.2872 27.1954 14.635 25.5544 12.9829 23.9245C12.6815 23.6343 12.3912 23.3329 12.5363 22.864C12.6926 22.3729 13.0945 22.2836 13.541 22.2166C15.8295 21.8928 18.1068 21.5691 20.3841 21.2119C20.6073 21.1784 20.8976 20.9775 20.998 20.7654C21.9804 18.823 22.9181 16.8582 23.8782 14.9047C23.9786 14.7037 24.0344 14.4581 24.1796 14.313C24.4251 14.0786 24.7377 13.7549 25.028 13.7437C25.2847 13.7325 25.6754 14.0451 25.8205 14.3019C26.5015 15.5968 27.1266 16.9364 27.7629 18.2536C28.1648 19.0909 28.5555 19.9393 29.0021 20.7542C29.1137 20.9551 29.3816 21.1561 29.616 21.2007C31.9157 21.5579 34.2153 21.8928 36.5149 22.2166C36.9503 22.2836 37.3187 22.3952 37.4638 22.8529C37.6089 23.2994 37.3521 23.5896 37.0619 23.8799C35.3986 25.532 33.7353 27.1842 32.0608 28.8252C31.8264 29.0596 31.7482 29.2717 31.804 29.6066C32.2171 31.9174 32.5966 34.2282 32.9985 36.5278C33.0655 36.9408 33.1213 37.3539 32.7306 37.6553C32.3175 37.9679 31.9268 37.8116 31.5361 37.5995C29.5044 36.5055 27.4615 35.4338 25.441 34.3287C25.1173 34.15 24.894 34.1612 24.5703 34.3398C22.4939 35.4673 20.4064 36.5725 18.3189 37.6776C17.5821 38.046 16.9458 37.6776 16.957 36.8962ZM15.2602 23.6678C15.2378 23.7236 15.2155 23.7794 15.1932 23.8352C15.3718 23.9915 15.5616 24.1366 15.729 24.3041C16.9905 25.5432 18.2296 26.7935 19.5022 28.0214C19.9152 28.4122 20.038 28.8252 19.9264 29.3722C19.7031 30.4885 19.5245 31.6048 19.3459 32.7212C19.2008 33.5919 19.0668 34.4626 18.9217 35.4338C19.1673 35.3222 19.3236 35.2664 19.4687 35.1882C21.0762 34.3286 22.6837 33.4914 24.28 32.5984C24.7935 32.3081 25.2289 32.3193 25.7424 32.5984C27.3387 33.4802 28.9462 34.3287 30.5538 35.1771C30.6989 35.2552 30.844 35.311 31.0561 35.4003C31.0226 35.1436 31.0114 34.965 30.9891 34.7863C30.6877 33.0114 30.4198 31.2253 30.0849 29.4615C29.9621 28.8252 30.1184 28.3787 30.5872 27.9321C31.8822 26.7042 33.1325 25.4316 34.4051 24.1701C34.539 24.0362 34.6618 23.8911 34.8404 23.7013C34.606 23.6566 34.4832 23.6231 34.3604 23.6008C32.5185 23.3329 30.6877 23.0538 28.8458 22.7971C28.3211 22.7301 27.9639 22.5068 27.7295 22.0156C27.1713 20.7988 26.5685 19.6044 25.988 18.3988C25.6866 17.7736 25.374 17.1485 25.0168 16.4564C24.894 16.6908 24.8047 16.8247 24.7377 16.9699C23.9116 18.6555 23.0856 20.3412 22.2818 22.038C22.0697 22.4845 21.7683 22.7412 21.2771 22.7971C20.6631 22.864 20.0603 22.9645 19.4575 23.0538C18.051 23.2436 16.6556 23.4557 15.2602 23.6678Z" fill="#E73638"/>
</g>
<defs>
<clipPath id="clip0_308_2283">
<rect width="50" height="45.758" fill="white" transform="translate(0 2)"/>
</clipPath>
</defs>
</svg>
