<svg width="50" height="50" viewBox="0 0 50 50" fill="none" xmlns="http://www.w3.org/2000/svg">
<g clip-path="url(#clip0_308_3132)">
<path d="M28.9145 40.941C27.1281 40.941 25.3319 40.941 23.5455 40.941C23.3698 40.941 23.2038 40.9215 23.0379 40.9215C23.0183 40.8238 22.9988 40.775 22.9988 40.7262C22.9988 38.7055 22.9988 36.6946 22.989 34.6739C22.989 34.3518 23.1745 34.3225 23.4186 34.2737C25.8395 33.7758 28.2507 33.2584 30.6716 32.7606C30.9156 32.7118 31.1987 32.7313 31.4233 32.8192C32.8778 33.3268 34.3225 33.8734 35.777 34.3908C35.9039 34.4396 36.0015 34.4884 36.0796 34.5568C36.5872 34.7325 37.0949 34.9179 37.5927 35.1034C37.6415 35.1229 37.6806 35.1425 37.7294 35.162V35.1327C38.1882 35.2889 38.5982 35.4451 39.0082 35.572C40.6579 36.0991 42.376 35.3572 43.0984 33.8149C43.8208 32.2823 43.2741 30.4568 41.8098 29.5587C41.6732 29.4709 41.5853 29.3928 41.5365 29.2854C41.0093 29.0901 40.4822 28.8949 39.9551 28.7192V28.7875C39.5646 28.6509 39.2034 28.5044 38.852 28.3775C38.8032 28.3678 38.7544 28.3482 38.7056 28.3385C37.7294 28.0749 36.6653 27.743 35.7575 27.2549C35.7282 27.2452 35.7087 27.2354 35.6794 27.2256C34.6446 26.8449 33.6001 26.474 32.5654 26.0835C31.8918 25.8297 31.2085 25.8004 30.5056 25.9468C28.1335 26.4447 25.7712 26.9426 23.399 27.4306C22.2276 27.6747 22.2276 27.6747 21.5736 26.6887C21.1441 26.0445 20.7243 25.4099 20.2557 24.7169C21.105 24.5411 21.8664 24.3947 22.6279 24.2288C23.9457 23.9359 24.7169 22.7352 24.424 21.4369C24.1312 20.1386 22.9012 19.465 21.4174 19.7774C18.5572 20.3826 15.697 20.9683 12.8368 21.5931C12.456 21.6712 12.2706 21.5736 12.0558 21.2514C10.1132 18.3131 8.15109 15.3748 6.1792 12.4463C5.99373 12.1632 5.76921 11.8898 5.50564 11.6848C4.18779 10.611 2.33305 10.6403 1.12259 11.7434C-0.117165 12.8465 -0.370972 14.6427 0.575924 16.0777C2.24519 18.6157 3.94375 21.144 5.63254 23.6723C5.96444 24.1702 6.39396 24.2971 6.77467 24.0335C7.13586 23.7797 7.16515 23.3502 6.85277 22.8719C6.1792 21.8566 5.49588 20.8414 4.82231 19.8262C3.81684 18.3229 2.80162 16.8293 1.82544 15.3162C1.01521 14.0765 1.70829 12.5439 3.15304 12.3682C3.97303 12.2705 4.57827 12.6513 5.03707 13.3346C6.93086 16.1753 8.82465 19.016 10.7184 21.8566C10.7868 21.964 10.8453 22.0714 10.9039 22.1788C10.123 23.0573 9.88869 23.7407 10.1035 24.5802C10.4256 25.859 11.6263 26.5521 13.032 26.2202C13.4225 26.1323 13.647 26.1909 13.8617 26.5423C14.5548 27.6454 15.3065 28.7094 16.0093 29.793C16.2729 30.203 16.6048 30.3397 17.0831 30.242C21.4857 29.3147 25.8883 28.3971 30.2909 27.4599C31.0816 27.294 31.8137 27.3428 32.5751 27.6356C34.4592 28.358 36.3627 29.0121 38.2468 29.7247C39.2034 30.0859 40.1601 30.4568 41.0777 30.8961C41.722 31.2085 42.0636 31.7942 41.9562 32.5458C41.8391 33.3658 41.4193 34.0101 40.5798 34.1858C40.1601 34.2737 39.6622 34.2346 39.262 34.0882C36.7532 33.1999 34.2542 32.2627 31.7454 31.3744C31.3842 31.2475 30.9449 31.2182 30.574 31.2866C25.8297 32.2627 21.0953 33.2584 16.3608 34.2541C15.0527 34.5275 14.506 34.303 13.7641 33.1901C12.1339 30.7594 10.5134 28.319 8.88323 25.8883C8.59037 25.449 8.17061 25.3416 7.79966 25.5954C7.44824 25.8297 7.37991 26.2592 7.65324 26.6692C9.38108 29.2659 11.0894 31.882 12.866 34.4494C13.6568 35.5915 14.8282 36.0113 16.2046 35.7672C16.7415 35.6696 17.2784 35.5525 17.8348 35.4451V40.941H17.2784C15.4432 40.941 13.5982 40.9312 11.763 40.941C9.66417 40.9605 8.24871 42.3857 8.22918 44.4845C8.21942 45.6852 8.21942 46.8957 8.22918 48.0964C8.22918 48.7895 8.48299 49.0335 9.17608 49.0335C16.6634 49.0335 24.1409 49.0335 31.6282 49.0335C32.3604 49.0335 32.5947 48.7992 32.6044 48.0769C32.6044 46.9347 32.6044 45.8024 32.6044 44.6602C32.6044 42.3369 31.228 40.941 28.9145 40.941ZM12.4658 24.8438C11.9094 24.8438 11.5677 24.5607 11.5092 24.1409C11.4506 23.6723 11.7044 23.3014 12.212 23.1843C13.1101 22.9793 14.0179 22.8035 14.9258 22.6181C17.2101 22.1397 19.4943 21.6614 21.7883 21.1928C22.4619 21.0562 22.8914 21.2905 22.9988 21.8176C23.0964 22.3057 22.7645 22.7059 22.13 22.8328C19.426 23.399 16.7317 23.9554 14.0277 24.5119C13.4713 24.6388 12.9246 24.7559 12.4658 24.8438ZM17.7958 28.6216C17.2491 28.768 16.9465 28.6509 16.6634 28.153C16.1948 27.3525 15.6482 26.6107 15.1015 25.7907C16.2729 25.5466 17.3858 25.3123 18.4986 25.0878C18.5962 25.0683 18.7622 25.1269 18.8207 25.2147C19.4357 26.1128 20.0312 27.0206 20.6853 27.9968C19.67 28.2018 18.7231 28.3678 17.7958 28.6216ZM19.7872 35.0253C20.3436 34.9472 20.9 34.8008 21.5052 34.6739V40.9019H19.3576C19.3479 40.775 19.3284 40.6384 19.3284 40.5017C19.3284 38.8617 19.3381 37.2217 19.3186 35.5818C19.3088 35.2108 19.4162 35.0741 19.7872 35.0253ZM31.1402 47.5204H9.72274C9.72274 46.3588 9.67393 45.2167 9.74226 44.0941C9.79107 43.1862 10.4842 42.5614 11.392 42.4345C11.597 42.4053 11.8118 42.4053 12.0265 42.4053C17.62 42.4053 23.2136 42.4053 28.8168 42.4053C30.4568 42.4053 31.1499 43.1081 31.1499 44.7579C31.1402 45.6657 31.1402 46.5736 31.1402 47.5204Z" fill="#37383D"/>
<path d="M49.9609 34.8594C49.8048 34.6349 49.6193 34.3811 49.3948 34.2835C49.0921 34.1468 48.77 34.303 48.6236 34.6251C48.5357 34.8204 48.5162 35.0644 48.5162 35.2889C48.5064 39.1741 48.5162 43.0691 48.5162 46.9543V47.5302H37.7294V36.2163C37.5537 36.1284 37.378 36.0406 37.1925 35.982C36.8704 35.8746 36.558 35.7575 36.2358 35.6404C36.2261 39.7696 36.2261 43.8891 36.2261 48.0183C36.2261 48.809 36.4506 49.0238 37.2413 49.0238C41.146 49.0238 45.0508 49.0238 48.9555 49.0238C49.7755 49.0238 49.9805 48.809 49.9805 47.9793C49.9805 43.7524 49.9805 39.5158 49.9805 35.2889C49.9902 35.1523 50.0293 34.9668 49.9609 34.8594Z" fill="#E73638"/>
<path d="M15.3748 9.76181C15.6775 10.2011 16.0875 10.3085 16.4584 10.0644C16.8294 9.81062 16.8782 9.41039 16.5853 8.95158C16.2534 8.4342 15.8922 7.92659 15.5603 7.40921C15.2187 6.89184 15.2772 6.41351 15.697 6.12065C16.1167 5.8278 16.5951 5.9547 16.9367 6.46232C18.2936 8.49277 19.6505 10.5135 20.9977 12.5537C21.3296 13.0613 21.2515 13.5689 20.8317 13.8325C20.4119 14.0961 19.9531 13.9789 19.6212 13.4908C19.2601 12.9734 18.9184 12.4365 18.5572 11.9094C18.2643 11.4799 17.8251 11.3823 17.4736 11.6263C17.132 11.8704 17.0734 12.2804 17.3467 12.7001C17.6982 13.2468 18.0691 13.7837 18.4303 14.3206C19.182 15.4334 20.5779 15.7556 21.6322 15.0527C22.7548 14.3108 23.0183 12.9051 22.2569 11.7532C21.72 10.943 21.1734 10.1328 20.6169 9.29324C20.7634 9.19563 20.8903 9.09801 21.0172 9.01015C24.6681 6.5697 28.319 4.12924 31.9797 1.70832C32.2042 1.56189 32.5166 1.46427 32.7802 1.46427C35.8063 1.44475 38.8325 1.45451 41.8586 1.45451C42.0148 1.45451 42.171 1.46427 42.3467 1.47403V5.66185C41.1851 5.66185 40.0429 5.72042 38.9106 5.65209C37.2413 5.55447 36.2066 6.7747 36.2163 8.32682C36.2554 14.3499 36.2358 20.3729 36.2358 26.3959C36.6458 26.6107 37.0851 26.7669 37.5244 26.9133C37.583 26.9328 37.6318 26.9524 37.6904 26.9719C37.7001 24.6876 37.7001 22.4034 37.7001 20.1191V19.6115H48.5162V20.2265C48.5162 23.9652 48.5162 27.7138 48.5162 31.4526C48.5162 32.0383 48.77 32.3604 49.2288 32.3799C49.6974 32.3995 49.9805 32.0578 49.9805 31.4526C49.9805 23.6626 49.9805 15.8629 49.9805 8.07302C49.9805 6.65755 48.9945 5.68137 47.5888 5.67161C46.4955 5.66185 45.4119 5.67161 44.3186 5.67161C44.1624 5.67161 44.016 5.67161 43.8403 5.67161C43.8403 4.08044 43.8403 2.56736 43.8403 1.05427C43.8403 0.214759 43.6353 -9.53441e-07 42.8153 -9.53441e-07C39.3499 -9.53441e-07 35.8844 -0.00976276 32.419 0.00976086C32.1066 0.00976086 31.7356 0.117141 31.4721 0.292853C27.7235 2.78212 23.975 5.2909 20.2362 7.78992C20.0898 7.88754 19.9434 7.96564 19.7872 8.07302C19.182 7.17493 18.6353 6.31589 18.0398 5.47638C17.3077 4.45139 15.9606 4.20734 14.9258 4.89067C13.8715 5.57399 13.5592 6.93088 14.2327 8.02421C14.5841 8.60992 14.9844 9.18586 15.3748 9.76181ZM48.4967 18.0691H37.7196V10.572H48.4967V18.0691ZM47.3253 7.13588C48.2819 7.13588 48.5162 7.37993 48.526 8.35611C48.526 8.55135 48.526 8.74658 48.526 9.00039H37.7196C37.6123 7.52636 37.6415 7.08707 39.3791 7.12612C42.0344 7.17493 44.6798 7.13588 47.3253 7.13588Z" fill="#E73638"/>
<path d="M41.4583 23.3796C41.4583 23.2234 41.4778 23.0672 41.4876 22.911C41.6731 22.9013 41.8 22.8915 41.9269 22.872C42.3174 22.8134 42.5419 22.5791 42.5614 22.1886C42.5809 21.7884 42.3759 21.476 41.9952 21.4565C41.1362 21.4175 40.2771 21.4175 39.4181 21.4663C39.0569 21.4858 38.8617 21.7982 38.8714 22.1594C38.8812 22.5498 39.096 22.7939 39.4864 22.8622C39.6426 22.8915 39.7988 22.9013 39.9452 22.9208V27.665C40.4529 27.8212 40.9605 28.0164 41.4583 28.2019C41.4583 26.5912 41.4583 24.9805 41.4583 23.3796Z" fill="#37383D"/>
<path d="M43.1569 39.5256C43.9573 39.5256 44.7578 39.4768 45.5485 39.5354C46.5637 39.6135 47.3447 40.4432 47.4423 41.4487C47.5399 42.4249 46.9249 43.3718 45.978 43.6744C45.7535 43.7525 45.4997 43.8013 45.2654 43.8013C43.8304 43.8111 42.4052 43.8403 40.9702 43.8013C39.4181 43.7525 38.4322 42.3858 38.8812 40.9801C39.1643 40.0918 39.9355 39.5354 40.9605 39.4963C40.9897 39.4963 41.0288 39.4963 41.0581 39.4963C41.7609 39.4963 42.454 39.4963 43.1569 39.4963C43.1569 39.5061 43.1569 39.5159 43.1569 39.5256ZM43.1373 40.9606C42.454 40.9606 41.7707 40.9508 41.0971 40.9606C40.57 40.9704 40.2576 41.2339 40.2478 41.6342C40.2381 42.0344 40.5602 42.337 41.0678 42.337C42.4345 42.3468 43.7914 42.3468 45.158 42.337C45.6754 42.337 45.9878 42.0442 45.978 41.6342C45.9683 41.2242 45.6559 40.9704 45.1288 40.9606C44.465 40.9508 43.8011 40.9606 43.1373 40.9606Z" fill="#37383D"/>
<path d="M44.7677 22.911C44.5627 22.8915 44.426 22.8915 44.2991 22.872C43.8891 22.8134 43.6548 22.5693 43.6451 22.1593C43.6353 21.7689 43.8598 21.476 44.2406 21.4565C45.0703 21.4174 45.9001 21.4077 46.7201 21.4467C47.1203 21.4663 47.3643 21.7689 47.3448 22.1886C47.3253 22.5986 47.0812 22.8329 46.6712 22.8817C46.5639 22.8915 46.4467 22.9012 46.271 22.911C46.2612 23.0965 46.232 23.282 46.232 23.4674C46.232 25.7419 46.232 28.0164 46.232 30.2909C46.232 30.4862 46.232 30.6814 46.1832 30.8669C46.0855 31.2281 45.822 31.394 45.451 31.3843C45.1094 31.3647 44.8653 31.189 44.797 30.8376C44.7579 30.6521 44.7677 30.4471 44.7677 30.2519C44.7677 28.0067 44.7677 25.7712 44.7677 23.526C44.7677 23.3405 44.7677 23.1453 44.7677 22.911Z" fill="#37383D"/>
<path d="M43.118 12.0168C43.9673 12.0168 44.8068 12.0168 45.6561 12.0168C46.2223 12.0168 46.5639 12.3096 46.5542 12.7489C46.5444 13.1784 46.2125 13.4713 45.6854 13.4713C43.9673 13.4811 42.2394 13.4811 40.5214 13.4713C40.004 13.4713 39.6721 13.1589 39.6819 12.7294C39.6916 12.2901 40.0138 12.0168 40.5507 12.0168C41.3999 12.007 42.259 12.0168 43.118 12.0168Z" fill="#37383D"/>
<path d="M43.0886 16.6147C42.7177 16.6147 42.3467 16.6244 41.966 16.6147C41.5365 16.5951 41.2632 16.3023 41.2534 15.902C41.2437 15.5116 41.5267 15.1797 41.9367 15.1601C42.7177 15.1309 43.4889 15.1309 44.2698 15.1601C44.6798 15.1699 44.9727 15.5213 44.9629 15.902C44.9531 16.312 44.6505 16.5951 44.2015 16.6147C43.8305 16.6244 43.4596 16.6147 43.0886 16.6147Z" fill="#37383D"/>
</g>
<defs>
<clipPath id="clip0_308_3132">
<rect width="50" height="49.0336" fill="white"/>
</clipPath>
</defs>
</svg>
