<svg width="14" height="14" viewBox="0 0 14 14" fill="none" xmlns="http://www.w3.org/2000/svg">
<g clip-path="url(#clip0_310_23672)">
<path d="M9.28027 7.07166L14 10.0554V3.96191L9.28027 7.07166Z" fill="#E73638"/>
<path d="M0 3.96191V10.0554L4.71975 7.07166L0 3.96191Z" fill="#E73638"/>
<path d="M13.125 2.1875H0.874995C0.43837 2.1875 0.0918701 2.513 0.0262451 2.93213L6.99999 7.52675L13.9737 2.93213C13.9081 2.513 13.5616 2.1875 13.125 2.1875Z" fill="#E73638"/>
<path d="M8.47876 7.60024L7.24064 8.41574C7.16714 8.46386 7.08401 8.48749 7.00001 8.48749C6.91601 8.48749 6.83289 8.46386 6.75939 8.41574L5.52126 7.59937L0.0280151 11.074C0.0953901 11.4896 0.44014 11.8125 0.875015 11.8125H13.125C13.5599 11.8125 13.9046 11.4896 13.972 11.074L8.47876 7.60024Z" fill="#E73638"/>
</g>
<defs>
<clipPath id="clip0_310_23672">
<rect width="14" height="14" fill="white"/>
</clipPath>
</defs>
</svg>
