<svg width="12" height="14" viewBox="0 0 12 14" fill="none" xmlns="http://www.w3.org/2000/svg">
<path d="M5.99081 0C2.95032 0 0.476562 2.47375 0.476562 5.51436C0.476562 6.77751 1.36449 8.54834 3.11577 10.7775C4.39206 12.4022 5.6472 13.6573 5.69997 13.71L5.99081 14L6.28177 13.71C6.33453 13.6573 7.58968 12.4022 8.86607 10.7775C10.6172 8.54834 11.5052 6.77751 11.5052 5.51425C11.5052 2.47375 9.03142 0 5.99081 0V0ZM5.99081 8.54097C4.14169 8.54097 2.63736 7.03664 2.63736 5.18752C2.63736 3.33839 4.14169 1.83395 5.99081 1.83395C7.83994 1.83395 9.34438 3.33839 9.34438 5.18752C9.34438 7.03664 7.83994 8.54097 5.99081 8.54097Z" fill="#E73638"/>
</svg>
