<svg width="14" height="15" viewBox="0 0 14 15" fill="none" xmlns="http://www.w3.org/2000/svg">
<g clip-path="url(#clip0_322_6083)">
<path d="M10.2103 0.537109H3.78967C1.70001 0.537109 0 2.23712 0 4.32678V10.7475C0 12.8371 1.70001 14.5371 3.78967 14.5371H10.2104C12.3 14.5371 14 12.8371 14 10.7475V4.32678C14 2.23712 12.3 0.537109 10.2103 0.537109V0.537109ZM6.99999 11.3651C4.88918 11.3651 3.17198 9.6479 3.17198 7.5371C3.17198 5.42629 4.88918 3.70909 6.99999 3.70909C9.11079 3.70909 10.828 5.42629 10.828 7.5371C10.828 9.6479 9.11079 11.3651 6.99999 11.3651ZM10.9195 4.61185C10.2958 4.61185 9.7884 4.1045 9.7884 3.48072C9.7884 2.85694 10.2958 2.34948 10.9195 2.34948C11.5433 2.34948 12.0508 2.85694 12.0508 3.48072C12.0508 4.1045 11.5433 4.61185 10.9195 4.61185Z" fill="#E73638"/>
<path d="M7.00019 4.52979C5.34205 4.52979 3.99292 5.87881 3.99292 7.53706C3.99292 9.1952 5.34205 10.5443 7.00019 10.5443C8.65844 10.5443 10.0075 9.1952 10.0075 7.53706C10.0075 5.87881 8.65844 4.52979 7.00019 4.52979Z" fill="#E73638"/>
<path d="M10.9198 3.17041C10.7487 3.17041 10.6094 3.30969 10.6094 3.4808C10.6094 3.65192 10.7487 3.7912 10.9198 3.7912C11.091 3.7912 11.2303 3.65202 11.2303 3.4808C11.2303 3.30959 11.091 3.17041 10.9198 3.17041Z" fill="#E73638"/>
</g>
<defs>
<clipPath id="clip0_322_6083">
<rect width="14" height="14" fill="white" transform="translate(0 0.537109)"/>
</clipPath>
</defs>
</svg>
