<svg width="159" height="117" viewBox="0 0 159 117" fill="none" xmlns="http://www.w3.org/2000/svg">
<g clip-path="url(#clip0_365_10118)">
<path d="M22.3274 114.871L20.437 110.917V115.733H19.7217V109.649H20.6413L22.685 113.958L24.6777 109.649H25.6484V115.733H24.882V110.967L22.9916 114.871H22.3274Z" fill="white"/>
<path d="M33.9766 110.309H31.3198V112.387H33.9766V113.046H31.3198V115.074H33.9766V115.682H30.6045V109.7H33.9766V110.309Z" fill="white"/>
<path d="M43.3776 115.124V117H42.7134V115.733H38.5749V117H37.9618V115.226L38.4216 115.124C38.9325 114.719 39.0347 113.908 39.0858 113.249L39.3413 109.7H43.02V115.124H43.3776ZM42.2536 115.124V110.258H39.9544L39.8011 112.64C39.75 113.705 39.6989 114.617 39.1369 115.124H42.2536Z" fill="white"/>
<path d="M47.976 109.7H48.6912V114.922L52.1144 109.7H53.0341V115.733H52.2677V110.663L48.9978 115.733H47.976V109.7Z" fill="white"/>
<path d="M61.7709 115.733H61.0556V113.452C60.6979 113.553 60.3403 113.604 59.9827 113.604C58.7564 113.604 57.5813 113.046 57.5813 111.728V109.751H58.2966V111.728C58.2966 112.59 59.1141 113.046 59.9827 113.046C60.3403 113.046 60.6979 112.995 61.0045 112.894V109.751H61.7198V115.733H61.7709Z" fill="white"/>
<path d="M70.4566 113.046H67.4933V115.733H66.778V109.7H67.4933V112.387H70.4566V109.7H71.1719V115.733H70.4566V113.046Z" fill="white"/>
<path d="M76.0258 109.7H76.7921V114.922L80.2153 109.7H81.135V115.733H80.3686V110.663L77.0987 115.733H76.0258V109.7Z" fill="white"/>
<path d="M85.8866 109.7H86.653V114.921L90.0762 109.7H90.9959V115.682H90.2295V110.663L86.9595 115.682H85.8866V109.7ZM87.3172 108.382H87.8792C87.8792 108.737 88.1858 108.889 88.4923 108.889C88.7478 108.889 89.0543 108.737 89.0543 108.382H89.6163C89.6163 109.041 89.0543 109.345 88.4412 109.345C87.8281 109.345 87.3172 108.99 87.3172 108.382Z" fill="white"/>
<path d="M105.915 115.124V117H105.251V115.733H101.368V109.7H102.083V115.124H104.74V109.7H105.506V115.124H105.915Z" fill="white"/>
<path d="M113.936 110.309H111.28V112.387H113.936V113.046H111.28V115.074H113.936V115.682H110.564V109.7H113.936V110.309Z" fill="white"/>
<path d="M122.264 113.046H119.352V115.733H118.586V109.7H119.352V112.387H122.264V109.7H123.031V115.733H122.264V113.046Z" fill="white"/>
<path d="M131.103 109.7V110.359H129.52V115.733H128.753V110.359H127.169V109.7H131.103Z" fill="white"/>
<path d="M136.008 115.733H135.242V109.7H137.132C138.563 109.7 139.278 110.663 139.278 111.627C139.278 112.59 138.563 113.502 137.132 113.502H135.957V115.733H136.008ZM138.563 111.627C138.563 111.018 138.103 110.359 137.183 110.359H136.008V112.894H137.183C138.103 112.843 138.563 112.235 138.563 111.627Z" fill="white"/>
<path d="M27.9476 95.2023H23.707V101.184H19.6707V85.7227H23.707V91.7551H27.9476V85.7227H31.9329V101.184H27.9476V95.2023Z" fill="white"/>
<path d="M44.9614 97.3818H40.0054L38.8303 101.184H34.5896L39.9032 85.5195H45.0636L50.4794 101.184H46.2387L44.9614 97.3818ZM42.4579 88.3584L42.0491 90.5382L41.0784 93.8839H43.9395L43.0199 90.5382L42.6111 88.3584H42.4579Z" fill="white"/>
<path d="M65.1941 85.6211H70.5078V101.184H66.6247V94.6445L67.1867 90.437L67.0846 90.3863L65.4496 94.5938L63.457 98.9534H60.2382L58.2455 94.5938L56.6106 90.3863L56.5084 90.437L57.1215 94.6445V101.184H53.1874V85.6211H58.5521L61.8731 94.2896L65.1941 85.6211Z" fill="white"/>
<path d="M85.7844 89.3726L84.6093 92.7183L80.573 101.184H75.0039V85.7227H78.938V94.0363L78.376 97.8383L78.4782 97.889L79.9088 94.1884L84.0473 85.7227H89.3098V101.184H85.3246V92.8197L85.9377 89.4233L85.7844 89.3726Z" fill="white"/>
<path d="M105.046 90.6901C103.718 89.3213 102.389 88.8651 101.265 88.9158C98.6086 88.9665 97.178 91.0956 97.178 93.4782C97.178 95.8608 98.6597 97.9899 101.265 97.9899C102.441 97.9899 104.024 97.483 105.251 95.9115L107.754 97.9899C105.813 100.322 103.769 101.488 101.265 101.488C96.054 101.488 93.2439 97.635 93.2439 93.4782C93.2439 89.3213 96.054 85.418 101.265 85.418C103.565 85.418 105.506 86.1784 107.448 88.5103L105.046 90.6901Z" fill="white"/>
<path d="M121.192 85.7227V89.1191H117.564V101.184H113.579V89.1191H109.951V85.7227H121.192Z" fill="white"/>
<path d="M139.329 93.4779C139.329 98.3444 135.651 101.487 131.257 101.487C126.863 101.487 123.184 98.3444 123.184 93.4779C123.184 88.6113 126.863 85.4684 131.257 85.4684C135.651 85.4177 139.329 88.662 139.329 93.4779ZM131.257 97.9389C133.249 97.9389 135.293 96.8236 135.293 93.4779C135.293 90.2842 133.198 89.0169 131.206 89.0169C129.111 89.0169 127.169 90.487 127.169 93.4779C127.169 96.4688 129.264 97.9389 131.257 97.9389Z" fill="white"/>
<path d="M1.0732 0.912476C-0.306302 2.17981 -0.357395 4.30892 0.919919 5.67764C2.19723 7.04636 4.34312 7.09705 5.72262 5.82972C7.10212 4.56239 7.15321 2.43327 5.8759 1.06456C4.59858 -0.304162 2.4527 -0.354855 1.0732 0.912476Z" fill="#E73638"/>
<path d="M157.927 0.912476C159.307 2.17981 159.358 4.30892 158.08 5.67764C156.803 7.04636 154.657 7.09705 153.278 5.82972C151.898 4.56239 151.847 2.43327 153.124 1.06456C154.402 -0.304162 156.548 -0.354855 157.927 0.912476Z" fill="#E73638"/>
<path d="M63.8146 40.4026C63.2015 42.1769 61.26 43.14 59.4717 42.5317C57.6835 41.9234 56.7127 39.9971 57.3258 38.2228C57.9389 36.4485 59.8805 35.4854 61.6687 36.0937C63.4569 36.702 64.4277 38.6283 63.8146 40.4026Z" fill="white"/>
<path d="M44.3484 44.7619C43.8885 46.5868 45.0126 48.4118 46.8008 48.868C48.5891 49.3243 50.4795 48.209 50.9393 46.4348C51.3991 44.6098 50.2751 42.7848 48.4869 42.3286C46.6475 41.8217 44.8082 42.9369 44.3484 44.7619Z" fill="white"/>
<path d="M61.7197 49.9329C61.1066 51.7071 59.1651 52.6703 57.3769 52.062C55.5886 51.4537 54.6179 49.5273 55.231 47.7531C55.8441 45.9788 57.7856 45.0156 59.5739 45.624C61.3621 46.2323 62.3328 48.1586 61.7197 49.9329Z" fill="#E73638"/>
<path d="M47.8226 35.5864C47.3628 37.4113 48.4868 39.2363 50.2751 39.6925C52.0633 40.1488 53.9537 39.0335 54.4136 37.2593C54.8734 35.4343 53.7493 33.6093 51.9611 33.1531C50.1218 32.6969 48.2824 33.8121 47.8226 35.5864Z" fill="#E73638"/>
<path d="M14.5614 25.5495C13.0797 26.7154 10.9338 26.4619 9.75868 24.9918C8.58355 23.5217 8.83902 21.3926 10.3207 20.2267C11.8024 19.0607 13.9483 19.3142 15.1234 20.7843C16.2985 22.2544 16.0431 24.3835 14.5614 25.5495Z" fill="white"/>
<path d="M10.7805 6.03259C9.40097 7.29992 9.34988 9.42904 10.6272 10.7978C11.9045 12.1665 14.0504 12.2172 15.4299 10.9498C16.8094 9.68251 16.8605 7.55339 15.5832 6.18467C14.3059 4.81596 12.16 4.76526 10.7805 6.03259Z" fill="white"/>
<path d="M21.561 18.6046C20.0793 19.7706 17.9334 19.5171 16.7583 18.047C15.5832 16.5769 15.8387 14.4478 17.3203 13.2818C18.802 12.1159 20.9479 12.3694 22.123 13.8395C23.2471 15.3603 22.9916 17.4894 21.561 18.6046Z" fill="#E73638"/>
<path d="M2.86116 11.8113C1.48166 13.0787 1.43057 15.2078 2.70788 16.5765C3.9852 17.9452 6.13108 17.9959 7.51058 16.7286C8.89008 15.4612 8.94117 13.3321 7.66386 11.9634C6.38655 10.6454 4.24066 10.544 2.86116 11.8113Z" fill="#E73638"/>
<path d="M16.8606 32.0385C15.7366 31.5823 14.4082 31.6837 13.4374 32.4948C11.9557 33.6607 11.7003 35.7898 12.8754 37.2599C14.0505 38.73 16.1964 38.9835 17.6781 37.8176C19.1087 36.7023 19.3641 34.6746 18.3423 33.2552L22.8384 27.831L21.4078 26.665L16.8606 32.0385Z" fill="white"/>
<path d="M33.9765 14.0929C32.8014 12.6228 30.6555 12.3693 29.1738 13.5353C27.7432 14.6505 27.4878 16.6275 28.4585 18.0976L24.0646 23.3191L25.4952 24.485L29.8891 19.2636C31.0132 19.7705 32.3416 19.6691 33.3634 18.858C34.8451 17.6921 35.1006 15.563 33.9765 14.0929Z" fill="#E73638"/>
<path d="M23.8602 41.9743C23.8091 41.9743 23.7581 41.9236 23.707 41.9236C21.8676 41.4674 20.0283 42.5826 19.5685 44.3569C19.1086 46.1818 20.2327 48.0068 22.0209 48.463C23.8602 48.9193 25.6996 47.804 26.1594 46.0298C26.466 44.9145 26.1083 43.7993 25.4441 42.9882L31.0643 34.3703L29.4804 33.3564L23.8602 41.9743Z" fill="white"/>
<path d="M41.1295 15.3094C39.2901 14.8531 37.4508 15.9684 36.991 17.7426C36.6844 18.8579 37.0421 19.9731 37.7063 20.7842L31.8817 29.8076L33.4656 30.8215L39.3412 21.8488C39.3923 21.8488 39.4434 21.8995 39.4945 21.8995C41.3338 22.3557 43.1732 21.2405 43.633 19.4662C44.0928 17.6412 42.9688 15.7656 41.1295 15.3094Z" fill="#E73638"/>
<path d="M35.7648 44.4579C34.0277 44.1031 32.2394 45.2183 31.8307 46.9419C31.3708 48.7668 32.4949 50.5918 34.2831 51.048C36.0714 51.5043 37.9618 50.389 38.4216 48.6148C38.7282 47.3981 38.3194 46.1308 37.3998 45.3197L40.6186 39.0337L38.9325 38.2227L35.7648 44.4579Z" fill="white"/>
<path d="M47.465 22.4066C45.6768 21.8997 43.7864 22.9135 43.2243 24.7385C42.8667 25.9551 43.2243 27.1718 44.0418 27.9829L40.823 34.3702L42.509 35.1813L45.6768 28.8953C47.465 29.3516 49.3044 28.3377 49.8153 26.5634C50.3262 24.7892 49.2533 22.9135 47.465 22.4066Z" fill="#E73638"/>
<path d="M71.1209 36.347C72.3471 36.1442 73.3689 35.3331 73.8288 34.1165C74.4419 32.3422 73.4711 30.4159 71.6829 29.8075C69.8946 29.1992 67.9531 30.1624 67.34 31.9367C66.778 33.6095 67.5955 35.4345 69.2304 36.1442L68.464 42.8864L70.3545 43.0892L71.1209 36.347Z" fill="white"/>
<path d="M67.1867 54.1402C66.0116 54.343 64.9387 55.1541 64.5299 56.3707C63.9168 58.145 64.8876 60.0713 66.6758 60.6796C68.4641 61.2879 70.4056 60.3248 71.0187 58.5505C71.5807 56.8269 70.7121 55.002 69.0772 54.343L69.8436 47.398L67.9531 47.1445L67.1867 54.1402Z" fill="#E73638"/>
<path d="M95.1855 40.4026C95.7986 42.1769 97.7401 43.14 99.5283 42.5317C101.317 41.9234 102.287 39.9971 101.674 38.2228C101.061 36.4485 99.1196 35.4854 97.3313 36.0937C95.5431 36.702 94.5723 38.6283 95.1855 40.4026Z" fill="white"/>
<path d="M114.652 44.7619C115.112 46.5868 113.988 48.4118 112.199 48.868C110.411 49.3243 108.521 48.209 108.061 46.4348C107.601 44.6098 108.725 42.7848 110.513 42.3286C112.353 41.8217 114.192 42.9369 114.652 44.7619Z" fill="white"/>
<path d="M97.2802 49.9329C97.8933 51.7071 99.8348 52.6703 101.623 52.062C103.411 51.4537 104.382 49.5273 103.769 47.7531C103.156 45.9788 101.214 45.0156 99.4261 45.624C97.6378 46.2323 96.6671 48.1586 97.2802 49.9329Z" fill="#E73638"/>
<path d="M111.177 35.5864C111.637 37.4113 110.513 39.2363 108.725 39.6925C106.937 40.1488 105.046 39.0335 104.586 37.2593C104.127 35.485 105.251 33.6093 107.039 33.1531C108.878 32.6969 110.718 33.8121 111.177 35.5864Z" fill="#E73638"/>
<path d="M144.439 25.5495C145.92 26.7154 148.066 26.4619 149.241 24.9918C150.416 23.5217 150.161 21.3926 148.679 20.2267C147.198 19.0607 145.052 19.3142 143.877 20.7843C142.701 22.2544 142.957 24.3835 144.439 25.5495Z" fill="white"/>
<path d="M148.219 6.03259C149.599 7.29992 149.65 9.42904 148.373 10.7978C147.095 12.1665 144.95 12.2172 143.57 10.9498C142.191 9.68251 142.139 7.55339 143.417 6.18467C144.694 4.81596 146.84 4.76526 148.219 6.03259Z" fill="white"/>
<path d="M137.439 18.6046C138.921 19.7706 141.067 19.5171 142.242 18.047C143.417 16.5769 143.161 14.4478 141.68 13.2818C140.198 12.1159 138.052 12.3694 136.877 13.8395C135.753 15.3603 135.957 17.4894 137.439 18.6046Z" fill="#E73638"/>
<path d="M156.139 11.8113C157.518 13.0787 157.569 15.2078 156.292 16.5765C155.015 17.9452 152.869 17.9959 151.489 16.7286C150.11 15.4612 150.059 13.3321 151.336 11.9634C152.613 10.6454 154.759 10.544 156.139 11.8113Z" fill="#E73638"/>
<path d="M142.139 32.0385C143.263 31.5823 144.592 31.6837 145.563 32.4948C147.044 33.6607 147.3 35.7898 146.125 37.2599C144.95 38.73 142.804 38.9835 141.322 37.8176C139.891 36.7023 139.636 34.6746 140.658 33.2552L136.162 27.831L137.592 26.665L142.139 32.0385Z" fill="white"/>
<path d="M125.023 14.0929C126.199 12.6228 128.344 12.3693 129.826 13.5353C131.257 14.6505 131.512 16.6275 130.541 18.0976L134.935 23.3697L133.505 24.5357L129.111 19.2636C127.987 19.7705 126.658 19.6691 125.637 18.858C124.155 17.6921 123.899 15.563 125.023 14.0929Z" fill="#E73638"/>
<path d="M135.089 41.9743C135.14 41.9743 135.191 41.9236 135.242 41.9236C137.081 41.4674 138.921 42.5826 139.38 44.3569C139.84 46.1818 138.716 48.0068 136.928 48.463C135.089 48.9193 133.249 47.804 132.79 46.0298C132.483 44.9145 132.841 43.7993 133.505 42.9882L127.885 34.3703L129.469 33.3564L135.089 41.9743Z" fill="white"/>
<path d="M117.871 15.3094C119.71 14.8531 121.549 15.9684 122.009 17.7426C122.316 18.8579 121.958 19.9731 121.294 20.7842L127.169 29.7569L125.585 30.7708L119.71 21.7981C119.659 21.7981 119.608 21.8488 119.557 21.8488C117.717 22.305 115.878 21.1898 115.418 19.4155C114.907 17.6412 116.031 15.7656 117.871 15.3094Z" fill="#E73638"/>
<path d="M123.235 44.4579C124.972 44.1031 126.761 45.2183 127.169 46.9419C127.629 48.7668 126.505 50.5918 124.717 51.048C122.929 51.5043 121.038 50.389 120.578 48.6148C120.272 47.3981 120.681 46.1308 121.6 45.3197L118.381 39.0337L120.068 38.2227L123.235 44.4579Z" fill="white"/>
<path d="M111.535 22.4066C113.323 21.8997 115.214 22.9135 115.776 24.7385C116.133 25.9551 115.776 27.1718 114.958 27.9829L118.177 34.3702L116.491 35.1813L113.323 28.8953C111.535 29.3516 109.696 28.3377 109.185 26.5634C108.674 24.7892 109.747 22.9135 111.535 22.4066Z" fill="#E73638"/>
<path d="M76.2812 29.0978C76.8943 27.3235 78.8358 26.3604 80.624 26.9687C82.4123 27.577 83.383 29.5033 82.7699 31.2776C82.4123 32.3422 81.4926 33.1533 80.4707 33.4574V44.1537H78.5803V33.4574C78.5292 33.4574 78.4781 33.4574 78.427 33.4067C76.6388 32.7984 75.668 30.8721 76.2812 29.0978Z" fill="white"/>
<path d="M87.8792 36.347C86.653 36.1442 85.6311 35.3331 85.1713 34.1165C84.5582 32.3422 85.5289 30.4159 87.3172 29.8075C89.1054 29.1992 91.0469 30.1624 91.66 31.9367C92.2221 33.6095 91.4046 35.4345 89.7696 36.1442L90.536 42.9371L88.6967 43.1399L87.8792 36.347Z" fill="white"/>
<path d="M80.4197 58.6521C80.4708 58.6521 80.5219 58.6521 80.573 58.7027C82.3612 59.3111 83.332 61.2374 82.7189 63.0117C82.1058 64.7859 80.1643 65.7491 78.376 65.1408C76.5878 64.5325 75.617 62.6061 76.2301 60.8319C76.5878 59.7673 77.5074 58.9562 78.5293 58.6521V48.3613H80.4197V58.6521Z" fill="#E73638"/>
<path d="M91.8133 54.1403C92.9884 54.3431 94.0613 55.1542 94.4701 56.3708C95.0832 58.1451 94.1124 60.0714 92.3242 60.6797C90.5359 61.288 88.5944 60.3249 87.9813 58.5506C87.4193 56.827 88.2879 55.0021 89.9228 54.3431L89.1564 47.3981L91.0469 47.1953L91.8133 54.1403Z" fill="#E73638"/>
</g>
<defs>
<clipPath id="clip0_365_10118">
<rect width="159" height="117" fill="white"/>
</clipPath>
</defs>
</svg>
