<svg width="141" height="104" viewBox="0 0 141 104" fill="none" xmlns="http://www.w3.org/2000/svg">
<g clip-path="url(#clip0_308_5801)">
<path d="M19.7997 102.108L18.1233 98.5928V102.874H17.489V97.4663H18.3046L20.1169 101.296L21.8839 97.4663H22.7448V102.874H22.0652V98.6379L20.3888 102.108H19.7997Z" fill="#5A5C63"/>
<path d="M30.1301 98.052H27.7741V99.8994H30.1301V100.485H27.7741V102.288H30.1301V102.828H27.1398V97.5112H30.1301V98.052Z" fill="#5A5C63"/>
<path d="M38.4669 102.333V104H37.8779V102.873H34.2079V104H33.6642V102.423L34.072 102.333C34.525 101.972 34.6157 101.251 34.661 100.665L34.8875 97.5112H38.1497V102.333H38.4669ZM37.4701 102.333V98.0069H35.4312L35.2953 100.125C35.25 101.071 35.2047 101.882 34.7063 102.333H37.4701Z" fill="#5A5C63"/>
<path d="M42.5447 97.5112H43.179V102.152L46.2147 97.5112H47.0302V102.873H46.3506V98.3674L43.4508 102.873H42.5447V97.5112Z" fill="#5A5C63"/>
<path d="M54.7779 102.874H54.1436V100.846C53.8264 100.936 53.5093 100.981 53.1921 100.981C52.1047 100.981 51.0626 100.485 51.0626 99.3138V97.5564H51.6969V99.3138C51.6969 100.08 52.4219 100.485 53.1921 100.485C53.5093 100.485 53.8264 100.44 54.0983 100.35V97.5564H54.7326V102.874H54.7779Z" fill="#5A5C63"/>
<path d="M62.4803 100.485H59.8525V102.873H59.2181V97.5112H59.8525V99.8994H62.4803V97.5112H63.1147V102.873H62.4803V100.485Z" fill="#5A5C63"/>
<path d="M67.4191 97.5112H68.0987V102.152L71.1344 97.5112H71.9499V102.873H71.2703V98.3674L68.3705 102.873H67.4191V97.5112Z" fill="#5A5C63"/>
<path d="M76.1636 97.5112H76.8432V102.152L79.8789 97.5112H80.6944V102.828H80.0148V98.3673L77.115 102.828H76.1636V97.5112ZM77.4322 96.3396H77.9306C77.9306 96.655 78.2025 96.7902 78.4743 96.7902C78.7008 96.7902 78.9727 96.655 78.9727 96.3396H79.4711C79.4711 96.9254 78.9727 97.1957 78.429 97.1957C77.8853 97.1957 77.4322 96.8803 77.4322 96.3396Z" fill="#5A5C63"/>
<path d="M93.9245 102.333V104H93.3355V102.873H89.8921V97.5112H90.5264V102.333H92.8825V97.5112H93.5621V102.333H93.9245Z" fill="#5A5C63"/>
<path d="M101.038 98.052H98.6819V99.8994H101.038V100.485H98.6819V102.288H101.038V102.828H98.0476V97.5112H101.038V98.052Z" fill="#5A5C63"/>
<path d="M108.423 100.485H105.841V102.873H105.161V97.5112H105.841V99.8994H108.423V97.5112H109.103V102.873H108.423V100.485Z" fill="#5A5C63"/>
<path d="M116.262 97.5112V98.097H114.857V102.873H114.177V98.097H112.773V97.5112H116.262Z" fill="#5A5C63"/>
<path d="M120.611 102.873H119.932V97.5112H121.608C122.877 97.5112 123.511 98.3674 123.511 99.2235C123.511 100.08 122.877 100.891 121.608 100.891H120.566V102.873H120.611ZM122.877 99.2235C122.877 98.6828 122.469 98.097 121.653 98.097H120.611V100.35H121.653C122.469 100.305 122.877 99.7643 122.877 99.2235Z" fill="#5A5C63"/>
<path d="M24.7837 84.6239H21.0231V89.941H17.4437V76.1975H21.0231V81.5597H24.7837V76.1975H28.3178V89.941H24.7837V84.6239Z" fill="#5A5C63"/>
<path d="M39.8715 86.5615H35.4765L34.4344 89.9411H30.6738L35.3859 76.0173H39.9621L44.7648 89.9411H41.0042L39.8715 86.5615ZM37.6513 78.5407L37.2889 80.4783L36.428 83.4523H38.9653L38.1497 80.4783L37.7873 78.5407H37.6513Z" fill="#5A5C63"/>
<path d="M57.8136 76.1074H62.5257V89.9411H59.0823V84.1282L59.5807 80.3882L59.49 80.3431L58.0402 84.0832L56.2731 87.9584H53.4187L51.6517 84.0832L50.2018 80.3431L50.1112 80.3882L50.6549 84.1282V89.9411H47.1661V76.1074H51.9235L54.8686 83.8128L57.8136 76.1074Z" fill="#5A5C63"/>
<path d="M76.0729 79.4419L75.0308 82.4159L71.4514 89.941H66.5128V76.1975H70.0016V83.5875L69.5032 86.967L69.5938 87.0121L70.8624 83.7226L74.5324 76.1975H79.1992V89.941H75.6651V82.506L76.2088 79.4869L76.0729 79.4419Z" fill="#5A5C63"/>
<path d="M93.1543 80.6136C91.9762 79.3969 90.7982 78.9914 89.8014 79.0364C87.4454 79.0815 86.1767 80.974 86.1767 83.0919C86.1767 85.2097 87.4907 87.1023 89.8014 87.1023C90.8435 87.1023 92.2481 86.6517 93.3355 85.2548L95.5556 87.1023C93.8339 89.1751 92.0215 90.2115 89.8014 90.2115C85.18 90.2115 82.688 86.7869 82.688 83.0919C82.688 79.3969 85.18 75.9272 89.8014 75.9272C91.8403 75.9272 93.562 76.6032 95.2837 78.6759L93.1543 80.6136Z" fill="#5A5C63"/>
<path d="M107.472 76.1975V79.2166H104.255V89.941H100.721V79.2166H97.5039V76.1975H107.472Z" fill="#5A5C63"/>
<path d="M123.556 83.0918C123.556 87.4176 120.294 90.2114 116.398 90.2114C112.501 90.2114 109.239 87.4176 109.239 83.0918C109.239 78.766 112.501 75.9722 116.398 75.9722C120.294 75.9271 123.556 78.811 123.556 83.0918ZM116.398 87.0571C118.165 87.0571 119.977 86.0658 119.977 83.0918C119.977 80.253 118.119 79.1264 116.352 79.1264C114.495 79.1264 112.773 80.4332 112.773 83.0918C112.773 85.7504 114.63 87.0571 116.398 87.0571Z" fill="#5A5C63"/>
<path d="M0.951564 0.811171C-0.271765 1.93769 -0.317073 3.83024 0.815639 5.04687C1.94835 6.26351 3.85131 6.30857 5.07464 5.18205C6.29797 4.05554 6.34327 2.16299 5.21056 0.946353C4.07785 -0.270285 2.17489 -0.315345 0.951564 0.811171Z" fill="#E73638"/>
<path d="M140.049 0.811171C141.272 1.93769 141.317 3.83024 140.184 5.04687C139.052 6.26351 137.149 6.30857 135.925 5.18205C134.702 4.05554 134.657 2.16299 135.79 0.946353C136.922 -0.270285 138.825 -0.315345 140.049 0.811171Z" fill="#E73638"/>
<path d="M56.5903 35.9133C56.0466 37.4904 54.3249 38.3466 52.7391 37.8059C51.1533 37.2651 50.2924 35.5528 50.8361 33.9757C51.3798 32.3986 53.1016 31.5424 54.6874 32.0832C56.2732 32.6239 57.134 34.3362 56.5903 35.9133Z" fill="#5A5C63"/>
<path d="M39.3278 39.7884C38.92 41.4106 39.9168 43.0328 41.5026 43.4384C43.0884 43.8439 44.7648 42.8526 45.1726 41.2754C45.5804 39.6533 44.5836 38.0311 42.9978 37.6255C41.3667 37.1749 39.7356 38.1663 39.3278 39.7884Z" fill="#5A5C63"/>
<path d="M54.7326 44.3848C54.1889 45.9619 52.4672 46.818 50.8814 46.2773C49.2956 45.7366 48.4348 44.0243 48.9785 42.4471C49.5222 40.87 51.2439 40.0139 52.8297 40.5546C54.4155 41.0953 55.2763 42.8076 54.7326 44.3848Z" fill="#E73638"/>
<path d="M42.4087 31.6325C42.0009 33.2547 42.9977 34.8769 44.5835 35.2824C46.1693 35.688 47.8457 34.6967 48.2535 33.1195C48.6613 31.4973 47.6645 29.8752 46.0787 29.4696C44.4476 29.0641 42.8165 30.0554 42.4087 31.6325Z" fill="#E73638"/>
<path d="M12.9129 22.7106C11.599 23.747 9.69602 23.5217 8.65393 22.2149C7.61183 20.9081 7.83838 19.0156 9.15232 17.9792C10.4663 16.9428 12.3692 17.1681 13.4113 18.4749C14.4534 19.7816 14.2269 21.6742 12.9129 22.7106Z" fill="#5A5C63"/>
<path d="M9.56009 5.3622C8.33676 6.48871 8.29145 8.38126 9.42416 9.5979C10.5569 10.8145 12.4598 10.8596 13.6832 9.73308C14.9065 8.60656 14.9518 6.71402 13.8191 5.49738C12.6864 4.28074 10.7834 4.23568 9.56009 5.3622Z" fill="#5A5C63"/>
<path d="M19.1202 16.5372C17.8063 17.5736 15.9033 17.3483 14.8612 16.0416C13.8191 14.7348 14.0457 12.8423 15.3596 11.8059C16.6735 10.7695 18.5765 10.9948 19.6186 12.3015C20.6154 13.6533 20.3888 15.5459 19.1202 16.5372Z" fill="#E73638"/>
<path d="M2.53726 10.4991C1.31393 11.6257 1.26862 13.5182 2.40133 14.7348C3.53404 15.9515 5.437 15.9965 6.66033 14.87C7.88366 13.7435 7.92897 11.851 6.79626 10.6343C5.66354 9.46275 3.76059 9.37263 2.53726 10.4991Z" fill="#E73638"/>
<path d="M14.9518 28.4783C13.955 28.0728 12.777 28.1629 11.9161 28.8839C10.6022 29.9203 10.3756 31.8128 11.4177 33.1196C12.4598 34.4263 14.3628 34.6516 15.6767 33.6152C16.9454 32.6239 17.1719 30.8215 16.2657 29.5598L20.2529 24.7383L18.9842 23.7019L14.9518 28.4783Z" fill="#5A5C63"/>
<path d="M30.1302 12.5269C29.0881 11.2201 27.1851 10.9948 25.8712 12.0312C24.6025 13.0225 24.376 14.7799 25.2369 16.0867L21.3403 20.7279L22.609 21.7643L26.5055 17.1231C27.5023 17.5737 28.6803 17.4835 29.5865 16.7626C30.9004 15.7262 31.127 13.8336 30.1302 12.5269Z" fill="#E73638"/>
<path d="M21.1591 37.3102C21.1138 37.3102 21.0685 37.2652 21.0232 37.2652C19.3921 36.8596 17.761 37.8509 17.3532 39.4281C16.9454 41.0502 17.9422 42.6724 19.528 43.078C21.1591 43.4835 22.7902 42.4922 23.198 40.9151C23.4698 39.9237 23.1527 38.9324 22.5637 38.2114L27.5476 30.5511L26.143 29.6499L21.1591 37.3102Z" fill="#5A5C63"/>
<path d="M36.4733 13.6083C34.8422 13.2027 33.2111 14.1941 32.8033 15.7712C32.5315 16.7625 32.8486 17.7539 33.4376 18.4748L28.2725 26.4956L29.677 27.3969L34.8875 19.4211C34.9328 19.4211 34.9781 19.4662 35.0234 19.4662C36.6545 19.8717 38.2856 18.8804 38.6934 17.3033C39.1012 15.6811 38.1044 14.0138 36.4733 13.6083Z" fill="#E73638"/>
<path d="M31.716 39.5183C30.1755 39.2029 28.5897 40.1942 28.2272 41.7263C27.8194 43.3484 28.8162 44.9706 30.402 45.3762C31.9878 45.7817 33.6642 44.7904 34.072 43.2133C34.3438 42.1318 33.9814 41.0053 33.1658 40.2843L36.0203 34.6968L34.5251 33.9758L31.716 39.5183Z" fill="#5A5C63"/>
<path d="M42.0915 19.9168C40.5057 19.4662 38.8293 20.3674 38.3309 21.9896C38.0138 23.071 38.3309 24.1525 39.0558 24.8735L36.2014 30.5511L37.6966 31.2721L40.5057 25.6845C42.0915 26.0901 43.7226 25.1889 44.1757 23.6118C44.6288 22.0346 43.6773 20.3674 42.0915 19.9168Z" fill="#E73638"/>
<path d="M63.0694 32.3086C64.1568 32.1283 65.063 31.4074 65.4708 30.3259C66.0145 28.7488 65.1536 27.0365 63.5678 26.4958C61.982 25.955 60.2603 26.8112 59.7166 28.3883C59.2182 29.8753 59.9431 31.4975 61.393 32.1283L60.7134 38.1214L62.3898 38.3017L63.0694 32.3086Z" fill="#5A5C63"/>
<path d="M59.5806 48.1249C58.5385 48.3051 57.587 49.0261 57.2246 50.1075C56.6809 51.6847 57.5417 53.397 59.1275 53.9377C60.7133 54.4784 62.435 53.6223 62.9787 52.0451C63.4771 50.5131 62.7069 48.8909 61.257 48.3051L61.9366 42.1318L60.2602 41.9065L59.5806 48.1249Z" fill="#E73638"/>
<path d="M84.4097 35.9133C84.9534 37.4904 86.6752 38.3466 88.261 37.8059C89.8468 37.2651 90.7076 35.5528 90.1639 33.9757C89.6202 32.3986 87.8985 31.5424 86.3127 32.0832C84.7269 32.6239 83.866 34.3362 84.4097 35.9133Z" fill="#5A5C63"/>
<path d="M101.672 39.7884C102.08 41.4106 101.083 43.0328 99.4974 43.4384C97.9116 43.8439 96.2352 42.8526 95.8274 41.2754C95.4196 39.6533 96.4164 38.0311 98.0022 37.6255C99.6333 37.1749 101.264 38.1663 101.672 39.7884Z" fill="#5A5C63"/>
<path d="M86.2673 44.3848C86.811 45.9619 88.5327 46.818 90.1185 46.2773C91.7043 45.7366 92.5652 44.0243 92.0215 42.4471C91.4778 40.87 89.756 40.0139 88.1702 40.5546C86.5844 41.0953 85.7236 42.8076 86.2673 44.3848Z" fill="#E73638"/>
<path d="M98.5913 31.6325C98.9991 33.2547 98.0023 34.8769 96.4165 35.2824C94.8307 35.688 93.1543 34.6967 92.7465 33.1195C92.3387 31.5424 93.3355 29.8752 94.9213 29.4696C96.5524 29.0641 98.1835 30.0554 98.5913 31.6325Z" fill="#E73638"/>
<path d="M128.087 22.7106C129.401 23.747 131.304 23.5217 132.346 22.2149C133.388 20.9081 133.162 19.0156 131.848 17.9792C130.534 16.9428 128.631 17.1681 127.589 18.4749C126.547 19.7816 126.773 21.6742 128.087 22.7106Z" fill="#5A5C63"/>
<path d="M131.44 5.3622C132.663 6.48871 132.709 8.38126 131.576 9.5979C130.443 10.8145 128.54 10.8596 127.317 9.73308C126.093 8.60656 126.048 6.71402 127.181 5.49738C128.314 4.28074 130.217 4.23568 131.44 5.3622Z" fill="#5A5C63"/>
<path d="M121.88 16.5372C123.194 17.5736 125.097 17.3483 126.139 16.0416C127.181 14.7348 126.954 12.8423 125.64 11.8059C124.326 10.7695 122.424 10.9948 121.381 12.3015C120.385 13.6533 120.566 15.5459 121.88 16.5372Z" fill="#E73638"/>
<path d="M138.463 10.4991C139.686 11.6257 139.731 13.5182 138.599 14.7348C137.466 15.9515 135.563 15.9965 134.34 14.87C133.116 13.7435 133.071 11.851 134.204 10.6343C135.336 9.46275 137.239 9.37263 138.463 10.4991Z" fill="#E73638"/>
<path d="M126.048 28.4783C127.045 28.0728 128.223 28.1629 129.084 28.8839C130.398 29.9203 130.624 31.8128 129.582 33.1196C128.54 34.4263 126.637 34.6516 125.323 33.6152C124.055 32.6239 123.828 30.8215 124.734 29.5598L120.747 24.7383L122.016 23.7019L126.048 28.4783Z" fill="#5A5C63"/>
<path d="M110.87 12.5269C111.912 11.2201 113.815 10.9948 115.129 12.0312C116.398 13.0225 116.624 14.7799 115.763 16.0867L119.66 20.773L118.391 21.8094L114.495 17.1231C113.498 17.5737 112.32 17.4835 111.414 16.7626C110.1 15.7262 109.873 13.8336 110.87 12.5269Z" fill="#E73638"/>
<path d="M119.796 37.3102C119.841 37.3102 119.886 37.2652 119.932 37.2652C121.563 36.8596 123.194 37.8509 123.602 39.4281C124.009 41.0502 123.013 42.6724 121.427 43.078C119.796 43.4835 118.164 42.4922 117.757 40.9151C117.485 39.9237 117.802 38.9324 118.391 38.2114L113.407 30.5511L114.812 29.6499L119.796 37.3102Z" fill="#5A5C63"/>
<path d="M104.527 13.6083C106.158 13.2027 107.789 14.1941 108.197 15.7712C108.468 16.7625 108.151 17.7539 107.562 18.4748L112.773 26.4506L111.368 27.3518L106.158 19.3761C106.112 19.3761 106.067 19.4211 106.022 19.4211C104.391 19.8267 102.76 18.8353 102.352 17.2582C101.899 15.6811 102.896 14.0138 104.527 13.6083Z" fill="#E73638"/>
<path d="M109.284 39.5183C110.825 39.2029 112.41 40.1942 112.773 41.7263C113.181 43.3484 112.184 44.9706 110.598 45.3762C109.012 45.7817 107.336 44.7904 106.928 43.2133C106.656 42.1318 107.019 41.0053 107.834 40.2843L104.98 34.6968L106.475 33.9758L109.284 39.5183Z" fill="#5A5C63"/>
<path d="M98.9085 19.9168C100.494 19.4662 102.171 20.3674 102.669 21.9896C102.986 23.071 102.669 24.1525 101.944 24.8735L104.799 30.5511L103.303 31.2721L100.494 25.6845C98.9085 26.0901 97.2774 25.1889 96.8243 23.6118C96.3712 22.0346 97.3227 20.3674 98.9085 19.9168Z" fill="#E73638"/>
<path d="M67.6456 25.8649C68.1893 24.2878 69.911 23.4316 71.4968 23.9723C73.0826 24.5131 73.9435 26.2254 73.3998 27.8025C73.0826 28.7488 72.267 29.4697 71.3609 29.7401V39.2479H69.6845V29.7401C69.6392 29.7401 69.5938 29.7401 69.5485 29.695C67.9627 29.1543 67.1019 27.442 67.6456 25.8649Z" fill="#5A5C63"/>
<path d="M77.9306 32.3086C76.8432 32.1283 75.937 31.4074 75.5292 30.3259C74.9855 28.7488 75.8464 27.0365 77.4322 26.4958C79.018 25.955 80.7397 26.8112 81.2834 28.3883C81.7818 29.8753 81.0569 31.4975 79.607 32.1283L80.2866 38.1665L78.6555 38.3467L77.9306 32.3086Z" fill="#5A5C63"/>
<path d="M71.3156 52.1351C71.3609 52.1351 71.4062 52.1351 71.4515 52.1802C73.0373 52.7209 73.8982 54.4332 73.3545 56.0103C72.8108 57.5874 71.089 58.4436 69.5032 57.9029C67.9175 57.3621 67.0566 55.6498 67.6003 54.0727C67.9175 53.1264 68.733 52.4055 69.6392 52.1351V42.9878H71.3156V52.1351Z" fill="#E73638"/>
<path d="M81.4193 48.1247C82.4614 48.305 83.4129 49.0259 83.7753 50.1074C84.319 51.6845 83.4582 53.3968 81.8724 53.9376C80.2866 54.4783 78.5649 53.6221 78.0212 52.045C77.5228 50.5129 78.293 48.8908 79.7429 48.305L79.0633 42.1317L80.7397 41.9514L81.4193 48.1247Z" fill="#E73638"/>
</g>
<defs>
<clipPath id="clip0_308_5801">
<rect width="141" height="104" fill="white"/>
</clipPath>
</defs>
</svg>
