<svg width="31" height="19" viewBox="0 0 31 19" fill="none" xmlns="http://www.w3.org/2000/svg">
<path d="M19.6044 16.3361H11.6099V2.06152H19.6044V16.3361Z" fill="#FF5F00"/>
<path d="M12.1221 9.19705C12.1221 6.30138 13.4867 3.722 15.6117 2.05974C14.0578 0.844215 12.0965 0.118711 9.96512 0.118711C4.91917 0.118711 0.828857 4.18316 0.828857 9.19705C0.828857 14.2109 4.91917 18.2754 9.96512 18.2754C12.0965 18.2754 14.0578 17.5499 15.6117 16.3344C13.4867 14.6721 12.1221 12.0927 12.1221 9.19705Z" fill="#EB001B"/>
<path d="M30.3867 9.19705C30.3867 14.2109 26.2964 18.2754 21.2505 18.2754C19.1191 18.2754 17.1578 17.5499 15.6033 16.3344C17.7289 14.6721 19.0935 12.0927 19.0935 9.19705C19.0935 6.30138 17.7289 3.722 15.6033 2.05974C17.1578 0.844215 19.1191 0.118711 21.2505 0.118711C26.2964 0.118711 30.3867 4.18316 30.3867 9.19705Z" fill="#F79E1B"/>
</svg>
