<svg width="28" height="19" viewBox="0 0 28 19" fill="none" xmlns="http://www.w3.org/2000/svg">
<path d="M3.60646 0.210938H25.1635C26.73 0.210938 27.9999 1.48109 27.9999 3.0479V15.5306C27.9999 17.0974 26.73 18.3676 25.1635 18.3676H3.60646C2.03994 18.3677 0.77002 17.0975 0.77002 15.5306V3.04795C0.77002 1.48109 2.03994 0.210938 3.60646 0.210938Z" fill="#69B7D0"/>
<path d="M28 3.61426H0.77002V8.15257H28V3.61426Z" fill="#13647D"/>
<path d="M9.27933 12.6932H4.74102C4.42771 12.6932 4.17371 12.4392 4.17371 12.1259C4.17371 11.8126 4.42771 11.5586 4.74102 11.5586H9.27933C9.59263 11.5586 9.84664 11.8126 9.84664 12.1259C9.84664 12.4392 9.59263 12.6932 9.27933 12.6932Z" fill="#13647D"/>
<path d="M12.6831 14.9618H4.74102C4.42771 14.9618 4.17371 14.7078 4.17371 14.3945C4.17371 14.0812 4.42771 13.8271 4.74102 13.8271H12.6831C12.9964 13.8271 13.2504 14.0812 13.2504 14.3945C13.2504 14.7078 12.9964 14.9618 12.6831 14.9618Z" fill="#13647D"/>
</svg>
