<svg width="74" height="74" viewBox="0 0 74 74" fill="none" xmlns="http://www.w3.org/2000/svg">
<g clip-path="url(#clip0_365_10403)">
<path d="M37.9325 0.0154236C22.9047 -0.491024 10.5635 11.5402 10.5635 26.4537C10.5635 43.3789 26.8058 55.662 35.9096 73.3267C36.3718 74.2236 37.663 74.2248 38.1268 73.328C46.3625 57.4333 60.4384 46.775 63.047 31.4623C65.748 15.6166 53.9974 0.557027 37.9325 0.0154236Z" fill="#37383D"/>
<path d="M23.839 21.9612C23.3025 23.526 21.6036 24.3755 20.0388 23.839C18.474 23.3025 17.6245 21.6036 18.161 20.0388C18.6975 18.474 20.3964 17.6245 21.9612 18.161C23.526 18.6975 24.3755 20.3964 23.839 21.9612Z" fill="white"/>
<path d="M21.8658 29.9612C21.4187 31.526 20.003 32.3755 18.699 31.839C17.395 31.3025 16.6871 29.6036 17.1342 28.0388C17.5813 26.474 18.997 25.6245 20.301 26.161C21.605 26.6975 22.3129 28.3964 21.8658 29.9612Z" fill="#E73638"/>
<path d="M29.889 18.4917C30.7841 18.3261 31.53 17.6634 31.8657 16.6695C32.3132 15.2199 31.6046 13.6461 30.2992 13.1491C28.9939 12.6522 27.5766 13.439 27.1291 14.8886C26.7188 16.2553 27.3155 17.7463 28.509 18.3261L27.9496 23.8343L29.3295 24L29.889 18.4917Z" fill="white"/>
<path d="M26.4906 33.6097C25.4603 33.7723 24.5197 34.4227 24.1613 35.3983C23.6238 36.8211 24.4749 38.3658 26.0426 38.8536C27.6104 39.3414 29.3126 38.5691 29.8501 37.1463C30.3428 35.7642 29.5813 34.3008 28.1479 33.7723L28.8198 28.2033L27.1625 28L26.4906 33.6097Z" fill="#E73638"/>
<path d="M50.1342 21.9612C50.5813 23.526 51.997 24.3755 53.301 23.839C54.605 23.3025 55.3129 21.6036 54.8658 20.0388C54.4187 18.474 53.003 17.6245 51.699 18.161C50.395 18.6975 49.6871 20.3964 50.1342 21.9612Z" fill="white"/>
<path d="M51.161 29.9612C51.6975 31.526 53.3964 32.3755 54.9612 31.839C56.526 31.3025 57.3755 29.6036 56.839 28.0388C56.3025 26.474 54.6036 25.6245 53.0388 26.161C51.474 26.6975 50.6245 28.3964 51.161 29.9612Z" fill="#E73638"/>
<path d="M34.161 12.8634C34.6975 11.4332 36.3964 10.6568 37.9612 11.1472C39.526 11.6375 40.3755 13.1903 39.839 14.6206C39.526 15.4787 38.7213 16.1325 37.8271 16.3777V25H36.1729V16.3777C36.1282 16.3777 36.0835 16.3777 36.0388 16.3369C34.474 15.8465 33.6245 14.2937 34.161 12.8634Z" fill="white"/>
<path d="M43.5332 18.4711C42.4591 18.3061 41.564 17.6459 41.1612 16.6557C40.6241 15.2116 41.4745 13.6437 43.0409 13.1486C44.6073 12.6535 46.3081 13.4374 46.8451 14.8815C47.3374 16.2431 46.6214 17.7285 45.1892 18.3061L45.8605 23.835L44.2493 24L43.5332 18.4711Z" fill="white"/>
<path d="M37.8271 37.4937C37.8718 37.4937 37.9165 37.4937 37.9612 37.5355C39.526 38.0376 40.3755 39.6276 39.839 41.092C39.3025 42.5564 37.6036 43.3514 36.0388 42.8493C34.474 42.3472 33.6245 40.7573 34.161 39.2929C34.474 38.4142 35.2787 37.7447 36.1729 37.4937V29H37.8271V37.4937Z" fill="#E73638"/>
<path d="M46.9245 33.5897C47.7831 33.7529 48.567 34.4058 48.8656 35.385C49.3135 36.813 48.6043 38.3635 47.2978 38.8531C45.9913 39.3427 44.5729 38.5675 44.1249 37.1394C43.7143 35.7522 44.3489 34.2834 45.5434 33.7529L44.9835 28.1632L46.3646 28L46.9245 33.5897Z" fill="#E73638"/>
</g>
<defs>
<clipPath id="clip0_365_10403">
<rect width="74" height="74" fill="white"/>
</clipPath>
</defs>
</svg>
