<svg width="40" height="40" viewBox="0 0 40 40" fill="none" xmlns="http://www.w3.org/2000/svg">
<g clip-path="url(#clip0_469_1122)">
<g clip-path="url(#clip1_469_1122)">
<path d="M19.7814 39.9822C16.2659 39.884 12.8842 39.0988 9.76134 37.3321C9.50258 37.1894 9.27952 37.1805 9.00292 37.2697C6.42429 38.1352 3.84565 38.9918 1.26702 39.8572C0.901198 39.9822 0.544294 40.0625 0.232003 39.7591C-0.0981329 39.4379 -0.00890697 39.0721 0.116009 38.6884C0.972579 36.1365 1.8113 33.5847 2.67679 31.0417C2.78387 30.7205 2.77494 30.4707 2.60541 30.1673C0.713823 26.7232 -0.160591 23.0292 0.0267834 19.139C0.294461 13.5534 2.65895 8.9226 6.77227 5.18404C9.32413 2.85524 12.2954 1.27594 15.677 0.508596C20.5844 -0.606729 25.251 0.124924 29.6141 2.60541C33.4062 4.76467 36.2882 7.8162 38.0995 11.7957C40.8744 17.872 40.6068 23.8769 37.3143 29.6766C34.7714 34.1557 30.9971 37.234 26.1343 38.9471C24.0999 39.6609 21.9942 39.9822 19.7814 39.9822ZM2.02545 37.93C2.25743 37.8675 2.40912 37.8229 2.5608 37.7783C4.63084 37.0912 6.70981 36.422 8.77093 35.6993C9.34198 35.4941 9.79703 35.5476 10.3235 35.851C12.9645 37.4035 15.8376 38.1887 18.8802 38.3761C22.94 38.6259 26.6697 37.5909 30.0246 35.3246C34.5215 32.282 37.3322 28.0883 38.1709 22.6991C39.0185 17.2742 37.5285 12.4292 34.0219 8.25341C30.7294 4.33639 26.4912 2.04328 21.3607 1.65069C16.0161 1.23133 11.3406 2.96231 7.47715 6.63842C2.82848 11.0373 0.892275 16.48 1.78453 22.8597C2.13252 25.3223 2.9177 27.6511 4.20256 29.8015C4.39886 30.1316 4.51485 30.4528 4.38101 30.8543C3.92596 32.157 3.49767 33.4687 3.06047 34.7803C2.72141 35.8064 2.39127 36.8325 2.02545 37.93Z" fill="#37383D"/>
<path d="M16.8371 27.0265C16.8371 24.9208 16.8371 22.8775 16.8371 20.7807C16.5962 20.7807 16.3821 20.7896 16.159 20.7807C15.6237 20.754 15.3114 20.4774 15.3024 19.9509C15.2846 18.9427 15.2846 17.9255 15.3024 16.9172C15.3114 16.3908 15.6237 16.0874 16.1501 16.0874C18.1755 16.0785 20.192 16.0785 22.2175 16.0874C22.8153 16.0874 23.1008 16.4265 23.1008 17.0778C23.1008 19.6476 23.1008 22.2173 23.1008 24.787C23.1008 25.5097 23.1008 26.2414 23.1008 27.0265C23.3596 27.0265 23.5915 27.0176 23.8235 27.0265C24.341 27.0533 24.6444 27.3121 24.6533 27.8207C24.6712 28.8468 24.6712 29.8729 24.6533 30.8989C24.6444 31.4075 24.341 31.6841 23.8146 31.6841C21.2627 31.6931 18.702 31.6931 16.1501 31.6841C15.6058 31.6841 15.3203 31.3986 15.3024 30.8543C15.2846 29.855 15.2846 28.8646 15.3024 27.8653C15.3114 27.3031 15.6058 27.0355 16.1769 27.0176C16.3821 27.0176 16.5873 27.0265 16.8371 27.0265ZM16.8817 19.2014C17.0245 19.2014 17.1137 19.2014 17.194 19.2014C18.2201 19.2103 18.4164 19.4066 18.4164 20.4327C18.4164 21.905 18.4164 23.3772 18.4164 24.8494C18.4164 25.7685 18.4254 26.6964 18.4164 27.6154C18.4075 28.2936 18.1398 28.5612 17.4706 28.5702C17.2833 28.5702 17.0959 28.5702 16.8817 28.5702C16.8817 29.1144 16.8817 29.6141 16.8817 30.1138C18.9607 30.1138 21.0218 30.1138 23.1008 30.1138C23.1008 29.8282 23.1008 29.5784 23.1008 29.3286C23.1008 29.0787 23.1008 28.8378 23.1008 28.588C22.958 28.5791 22.8867 28.5702 22.8153 28.5702C21.6821 28.5523 21.5393 28.4095 21.5393 27.2675C21.5393 24.2516 21.5393 21.2358 21.5393 18.2199C21.5393 18.0504 21.5393 17.872 21.5393 17.6846C19.9511 17.6846 18.4254 17.6846 16.8817 17.6846C16.8817 18.1843 16.8817 18.6661 16.8817 19.2014Z" fill="#E73638"/>
<path d="M19.9601 8.2891C21.6732 8.28018 23.0919 9.68103 23.1008 11.3942C23.1098 13.0895 21.6732 14.5349 19.9779 14.526C18.2916 14.526 16.8907 13.1252 16.8639 11.4299C16.8283 9.73457 18.238 8.30695 19.9601 8.2891ZM19.9601 12.9467C20.8345 12.9556 21.5305 12.2775 21.5305 11.4031C21.5305 10.5465 20.8167 9.83271 19.9779 9.83271C19.1481 9.83271 18.4522 10.5287 18.4343 11.3674C18.4076 12.2418 19.0857 12.9378 19.9601 12.9467Z" fill="#E73638"/>
<path d="M36.9215 19.8974C36.7877 21.0216 36.6895 22.0388 36.5468 23.056C36.4665 23.6359 36.0828 23.9661 35.6456 23.8947C35.1638 23.8144 34.905 23.3772 35.0121 22.8061C35.5742 19.7368 35.253 16.7745 33.9771 13.9192C33.9414 13.8389 33.9057 13.7586 33.8789 13.6694C33.7094 13.1876 33.8521 12.7861 34.2447 12.6076C34.6552 12.4202 35.1192 12.5898 35.2976 13.0627C35.7081 14.1691 36.172 15.2755 36.4397 16.4265C36.7074 17.5864 36.7698 18.7999 36.9215 19.8974Z" fill="#37383D"/>
<path d="M33.7098 10.6268C33.7098 11.0284 33.344 11.4031 32.9424 11.4031C32.5231 11.412 32.1573 11.0284 32.1662 10.6001C32.184 10.1896 32.5498 9.83273 32.9514 9.84166C33.3529 9.85058 33.7187 10.2253 33.7098 10.6268Z" fill="#37383D"/>
</g>
</g>
<defs>
<clipPath id="clip0_469_1122">
<rect width="40" height="40" fill="white" transform="matrix(-1 0 0 1 40 0)"/>
</clipPath>
<clipPath id="clip1_469_1122">
<rect width="40" height="39.9822" fill="white"/>
</clipPath>
</defs>
</svg>
