<svg width="40" height="40" viewBox="0 0 40 40" fill="none" xmlns="http://www.w3.org/2000/svg">
<path d="M25.4732 39.9853C28.363 39.9853 31.3071 39.9776 34.1505 39.9698H34.6153C35.7155 39.9698 36.6994 39.3887 37.2495 38.4203C37.8151 37.4363 37.8073 36.2665 37.234 35.298C37.2263 35.2825 37.2108 35.2593 37.203 35.2438C38.3109 34.9416 39.1322 34.1359 39.4343 33.0512C39.7365 31.9743 39.4576 30.8044 38.7215 30.0219C39.7365 29.2162 40.1394 28.1857 39.9147 26.9616C39.69 25.722 38.954 24.893 37.7299 24.5134C38.1947 23.7696 38.3342 23.0103 38.1482 22.1968C37.8151 20.7016 36.6142 19.7331 35.0879 19.7331C32.1671 19.7254 29.2462 19.7254 26.3254 19.7254H22.4594C22.4594 19.7254 22.4594 18.9661 22.4594 18.7414C22.4594 18.2068 22.4594 17.649 22.4594 17.0989C22.4516 16.3939 22.0565 16.2467 21.7233 16.2467C21.4987 16.2467 21.3282 16.3087 21.2043 16.4326C21.057 16.5798 20.9873 16.7968 20.9951 17.0989C20.9951 17.5095 21.0028 17.9279 21.0028 18.3385C21.0106 19.0358 21.0183 19.7563 21.0106 20.4691C20.9873 22.8786 20.5922 24.769 19.7864 26.4115C18.5778 28.8598 16.7571 30.2311 14.2082 30.5952C13.9293 30.634 13.7278 30.7424 13.6116 30.9129C13.5031 31.0678 13.4644 31.2615 13.5109 31.4784C13.5806 31.8503 13.8518 32.0595 14.2547 32.0595C14.3166 32.0595 14.3864 32.0518 14.4561 32.044C16.3078 31.7729 17.865 31.0756 19.0814 29.9599C20.2281 28.9062 21.119 27.4574 21.7156 25.6445C22.1185 24.4204 22.3664 23.1033 22.4361 21.732C22.4439 21.5925 22.4516 21.4608 22.4671 21.3136C22.4671 21.2904 22.4749 21.2594 22.4749 21.2361H24.8844C24.2878 22.375 24.3188 23.4597 24.9851 24.5521C23.6757 25.0325 22.9552 26.0009 22.901 27.3645C22.839 28.7513 23.4588 29.7585 24.7372 30.355C24.1948 31.1376 24.0166 31.982 24.2258 32.873C24.4427 33.7872 24.9696 34.4845 25.7986 34.9339C24.9773 36.0728 24.8999 37.2736 25.5584 38.5055C25.5429 38.5055 25.5274 38.5055 25.5119 38.5055C24.7217 38.5055 23.9314 38.5055 23.1411 38.5133C22.3277 38.5133 21.5219 38.521 20.7084 38.521C19.4688 38.521 18.4461 38.5133 17.4932 38.4978C14.4174 38.4435 11.7057 37.3899 9.44341 35.3677C9.3427 35.2825 9.25747 35.1121 9.25747 34.9959C9.24973 31.0368 9.24973 27.0081 9.24973 23.111V21.5538C9.24973 21.5383 9.24973 21.5228 9.24973 21.5073C9.44341 21.4608 9.64485 21.4221 9.83854 21.3833C10.3344 21.2826 10.8457 21.1742 11.3338 21.0115C12.9143 20.5079 14.2547 19.6091 15.1999 18.416C16.1528 17.2229 16.7184 15.7199 16.8346 14.0774C16.8966 13.2794 16.8811 12.4659 16.8734 11.6756C16.8656 11.2185 16.8579 10.7382 16.8656 10.2733V10.1183C16.8734 9.53728 16.8811 8.94071 16.9818 8.37514C17.098 7.72434 17.4312 7.40669 18.0122 7.40669C18.144 7.40669 18.2912 7.42218 18.4461 7.46092C19.0427 7.59263 19.5075 7.94902 19.8717 8.55333C20.3443 9.32034 20.6309 10.2501 20.7626 11.3812C20.8401 12.063 20.8866 12.768 20.9253 13.4421C20.9408 13.7055 20.9563 13.9689 20.9718 14.2246C21.0183 14.9219 21.4522 15.0226 21.7001 15.0226H21.7233C22.1495 15.0148 22.4361 14.7204 22.4361 14.302C22.4284 12.5201 22.3431 10.4592 21.5219 8.54558C20.9331 7.17426 20.1351 6.3995 19.0194 6.10509C18.6785 6.01212 18.3067 5.96564 17.9348 5.96564C17.7953 5.96564 17.6481 5.97339 17.5087 5.98888C16.7029 6.06636 16.0831 6.56995 15.7267 7.42218C15.3316 8.36739 15.3083 9.33584 15.3083 10.3353C15.3083 10.9086 15.3393 11.4897 15.3703 12.0475C15.3781 12.2024 15.3858 12.3574 15.3936 12.5123C15.5253 15.3635 14.5491 17.4476 12.4107 18.8809C11.5043 19.4852 10.4661 19.8416 9.23423 19.9655C9.23423 19.8726 9.23423 19.7796 9.23423 19.6944C9.21873 19.0591 8.76937 18.5942 8.15731 18.5942C6.98743 18.5865 5.77106 18.5865 4.54694 18.5865C3.43129 18.5865 2.26915 18.5865 1.10701 18.5942C0.502697 18.5942 0.0533333 19.0436 0.00684738 19.6789C-0.000900269 19.7563 -0.000900269 19.8416 0.00684738 19.919V19.9965V37.6998C0.00684738 38.7147 0.401978 39.1098 1.42466 39.1098C1.64934 39.1098 1.87402 39.1098 2.09095 39.1098C2.33113 39.1098 2.5713 39.1098 2.81923 39.1098C3.22985 39.1098 3.48552 39.0401 3.64047 38.8774C3.76443 38.7534 3.81866 38.583 3.81866 38.3661C3.81092 37.7308 3.33057 37.6378 2.80373 37.6378C2.61779 37.6378 1.81204 37.6378 1.81204 37.6378H1.50214V20.0817H7.7312V37.6223H6.89446C6.63104 37.6223 6.35987 37.6223 6.09645 37.6223H5.957C5.84079 37.6223 5.70908 37.6223 5.57737 37.6378C5.18999 37.6765 4.96531 37.9322 4.95756 38.3428C4.94981 38.5675 5.01954 38.7612 5.1435 38.8929C5.25197 39.0091 5.39917 39.0633 5.56187 39.0711C6.04997 39.0788 6.43735 39.0866 6.80149 39.0866C7.35931 39.0866 7.85516 39.0711 8.32001 39.0478C8.81586 39.0168 9.19549 38.583 9.21873 38.0019C9.22648 37.754 9.22648 37.5061 9.22648 37.2427C9.22648 37.2117 9.22648 37.1807 9.22648 37.1497C9.25747 37.1652 9.28071 37.1884 9.30396 37.2039C11.7057 39.0014 14.3941 39.9233 17.2762 39.9466C19.7555 39.9698 22.4284 39.9853 25.4732 39.9853ZM31.4388 35.267C32.477 35.267 33.5074 35.267 34.4914 35.2748C34.995 35.2748 35.4443 35.453 35.762 35.7706C36.0486 36.065 36.2113 36.4679 36.2036 36.9173C36.1958 37.8315 35.4676 38.4978 34.4759 38.5055C34.073 38.5055 33.6701 38.5055 33.2672 38.5055C32.9573 38.5055 32.6397 38.5055 32.3298 38.5055C32.0199 38.5055 31.3768 38.5055 31.3768 38.5055C31.0669 38.5055 29.8196 38.5055 29.5097 38.5055C29.1145 38.5055 28.7117 38.5055 28.3165 38.5055C27.2939 38.5055 26.5733 37.847 26.5733 36.9018C26.5733 36.4524 26.7205 36.065 27.0149 35.7706C27.3248 35.453 27.782 35.2825 28.2933 35.2748C29.378 35.267 30.4316 35.267 31.4388 35.267ZM36.4593 30.5797C36.8931 30.5797 37.2418 30.6959 37.5362 30.9361C38.0708 31.3777 38.2644 32.075 38.032 32.7258C37.7918 33.3921 37.2108 33.7872 36.4747 33.7872C35.1267 33.7872 33.7786 33.795 32.4305 33.795C30.7028 33.795 28.9828 33.795 27.2629 33.7872C27.0769 33.7872 26.9142 33.764 26.767 33.7252C26.0155 33.5161 25.5042 32.7568 25.6049 32.0053C25.7133 31.1918 26.3641 30.5952 27.1544 30.5875C27.7277 30.5797 28.3398 30.5797 29.0913 30.5797C29.5562 30.5797 30.021 30.5797 30.4859 30.5797C30.9507 30.5797 31.4156 30.5797 31.8804 30.5797H32.0354C32.3995 30.5797 33.98 30.5797 34.3984 30.5797C35.0802 30.5797 35.7697 30.5797 36.4515 30.5797H36.4593ZM36.8156 25.8769C37.296 25.8769 37.6756 26.0086 37.9933 26.2876C38.4891 26.7292 38.6751 27.442 38.4349 28.0618C38.187 28.7126 37.5981 29.1077 36.8544 29.1077C36.312 29.1077 35.7232 29.1154 35.0027 29.1154C34.5843 29.1154 34.166 29.1154 33.7476 29.1154C33.3292 29.1154 32.9109 29.1154 32.4925 29.1154C32.4925 29.1154 29.4089 29.1154 28.7891 29.1154C27.8749 29.1154 26.9607 29.1154 26.0465 29.1154C25.1555 29.1154 24.4815 28.6041 24.3343 27.8216C24.2413 27.3257 24.3575 26.8454 24.6597 26.4735C24.9696 26.1016 25.4344 25.8924 25.9613 25.8847C26.6121 25.8769 27.3094 25.8769 28.1616 25.8769C28.6884 25.8769 29.2153 25.8769 29.7421 25.8769C30.2689 25.8769 30.7958 25.8769 31.3226 25.8769H34.3287C35.1654 25.8769 35.9867 25.8769 36.8156 25.8769ZM29.0758 24.4049C28.5722 24.4049 28.0609 24.4049 27.5573 24.4049C26.6431 24.4049 25.9225 23.7076 25.9225 22.8166C25.9225 22.3905 26.0852 21.9876 26.3796 21.6932C26.6818 21.3833 27.1002 21.2129 27.5418 21.2129C28.8046 21.2051 30.083 21.2051 31.3381 21.2051C32.6087 21.2051 33.8948 21.2051 35.1577 21.2129C35.607 21.2129 36.0176 21.3833 36.312 21.6777C36.6065 21.9722 36.7692 22.3828 36.7614 22.8166C36.7537 23.7154 36.0564 24.3972 35.1344 24.4049C34.6386 24.4049 34.1427 24.4049 33.6391 24.4049H31.4001C31.4078 24.4049 29.4554 24.4049 29.0758 24.4049Z" fill="#37383D"/>
<path d="M26.7592 16.2699C26.9994 16.2699 27.2241 16.1692 27.41 16.0685C27.8749 15.8206 28.3397 15.5804 28.8046 15.3325C29.5716 14.9296 30.3618 14.5112 31.1366 14.0929C31.2683 14.0231 31.3845 13.9844 31.4852 13.9844C31.586 13.9844 31.6867 14.0154 31.8106 14.0774C32.7249 14.5732 33.6546 15.0613 34.561 15.5339C34.8787 15.6966 35.1886 15.8593 35.5062 16.0298L35.5527 16.053C35.6379 16.0995 35.7309 16.146 35.8316 16.1847C35.9556 16.2312 36.0796 16.2544 36.2035 16.2544C36.4359 16.2544 36.6529 16.1615 36.8078 15.9988C36.9938 15.8051 37.0945 15.5184 37.079 15.2008V15.193L36.9473 14.4415C36.8156 13.69 36.6839 12.892 36.5444 12.1017C36.5212 11.9545 36.4902 11.8073 36.4669 11.6601C36.405 11.3347 36.343 10.9938 36.312 10.6684C36.3042 10.5445 36.374 10.3585 36.4669 10.2656C37.4741 9.25837 38.52 8.24343 39.5272 7.26724L39.566 7.2285C39.8604 6.94959 40.1083 6.62419 39.9534 6.15158C39.7907 5.65574 39.3723 5.53178 38.9849 5.47754C37.6911 5.29935 36.1648 5.08242 34.6617 4.84224C34.5455 4.82675 34.3906 4.69504 34.3286 4.57882C33.6468 3.24624 32.9805 1.88266 32.3995 0.705031C32.2213 0.348641 31.9888 0 31.4775 0C30.8964 0 30.6717 0.472603 30.5478 0.728273C30.2766 1.27835 30.0054 1.82843 29.742 2.36301C29.3856 3.08354 29.0138 3.83506 28.6574 4.57882C28.5644 4.77251 28.4559 4.84999 28.2158 4.88098C26.9994 5.04368 25.7598 5.22962 24.5666 5.40007L23.8539 5.50079C23.4123 5.56277 23.1256 5.78745 23.0094 6.16708C22.9009 6.51572 23.0094 6.84112 23.327 7.15102L23.9468 7.75533C24.7758 8.56883 25.6358 9.40557 26.4958 10.2268C26.6585 10.3818 26.6972 10.5135 26.6585 10.7382C26.4338 11.9778 26.2169 13.2406 26.0077 14.457L25.9225 14.9683C25.8527 15.3635 25.845 15.8051 26.2711 16.0995C26.4183 16.2157 26.581 16.2699 26.7592 16.2699ZM37.8693 6.82562C37.8383 6.86436 37.8073 6.89535 37.7763 6.92634L37.2804 7.41444C36.6451 8.03425 35.9866 8.6773 35.3358 9.30485C34.9019 9.72322 34.7315 10.2268 34.8322 10.8079C34.8787 11.0945 34.9329 11.3812 34.9794 11.6601C35.0181 11.8693 35.0569 12.0862 35.0956 12.2954C35.1886 12.8223 35.2738 13.3568 35.3668 13.9069L35.4288 14.333C35.39 14.3175 35.359 14.302 35.328 14.2866C35.0569 14.1471 34.7935 14.0076 34.5223 13.8682C33.794 13.4886 33.0503 13.1012 32.3142 12.706C32.0276 12.5511 31.7487 12.4736 31.4697 12.4736C31.1986 12.4736 30.9274 12.5433 30.6562 12.6905C29.866 13.1089 29.068 13.5273 28.2855 13.9302L27.6037 14.2866C27.5727 14.302 27.5495 14.3175 27.5185 14.333C27.5185 14.302 27.5262 14.2711 27.5262 14.2478L27.6424 13.5815C27.7896 12.7138 27.9446 11.8151 28.1073 10.9318C28.2313 10.2423 28.0608 9.69223 27.565 9.25062C27.2628 8.97945 26.9606 8.68505 26.5965 8.31316C26.2091 7.91803 25.8295 7.51516 25.4499 7.12003C25.3491 7.01931 25.2562 6.91085 25.1555 6.81013C25.3879 6.77914 25.6203 6.7404 25.8605 6.70941C26.7127 6.58545 27.596 6.45374 28.4637 6.34527C29.1765 6.2523 29.6646 5.89591 29.9512 5.26836C30.1527 4.819 30.3773 4.36964 30.5943 3.93577C30.6795 3.76533 30.7647 3.60263 30.8499 3.43218C31.0126 3.09904 31.1753 2.77364 31.3535 2.41725L31.4697 2.19257L31.8571 2.97507C32.26 3.79632 32.6474 4.57882 33.0348 5.36908C33.2982 5.91141 33.7165 6.22906 34.2666 6.30654C34.592 6.35302 34.9252 6.40726 35.2506 6.45374L37.8693 6.82562Z" fill="#E73638"/>
<path d="M4.64006 25.536C5.21338 25.536 5.75571 25.3036 6.17408 24.893C6.5847 24.4746 6.81713 23.9323 6.80938 23.359C6.80164 22.1736 5.82544 21.2051 4.63231 21.2051H4.61681C4.03574 21.2051 3.48567 21.4376 3.08279 21.8482C2.67992 22.2588 2.46299 22.8089 2.47073 23.3977C2.48623 24.5676 3.45468 25.5283 4.64006 25.536ZM4.63231 22.6772C4.826 22.6772 4.99645 22.7469 5.12815 22.8786C5.25986 23.0103 5.32959 23.1808 5.32184 23.359C5.32184 23.7309 5.01194 24.0408 4.64006 24.0485H4.62456C4.43862 24.0485 4.26817 23.9788 4.14421 23.8471C4.0125 23.7154 3.94278 23.5449 3.94278 23.3512C3.94278 22.9716 4.22943 22.6772 4.61681 22.6694L4.63231 22.6772Z" fill="#37383D"/>
</svg>
