<svg width="40" height="40" viewBox="0 0 40 40" fill="none" xmlns="http://www.w3.org/2000/svg">
<g clip-path="url(#clip0_469_4862)">
<g clip-path="url(#clip1_469_4862)">
<path d="M11.3069 20.0039C11.1975 19.8867 11.1037 19.7851 11.0022 19.6835C7.50148 16.1829 4.0008 12.6822 0.507929 9.1815C-0.164078 8.50949 -0.164077 8.15005 0.500115 7.48585C2.83651 5.14165 5.18072 2.80525 7.51711 0.468859C8.14223 -0.156263 8.53293 -0.148449 9.16587 0.484487C12.6587 3.97736 16.1438 7.46241 19.6367 10.9553C19.7461 11.0647 19.8398 11.1897 19.9649 11.3382C20.1211 11.1897 20.2305 11.0881 20.3399 10.9787C23.8328 7.48585 27.3179 4.0008 30.8107 0.507929C31.4827 -0.164078 31.8422 -0.171892 32.5064 0.500115C34.8428 2.83651 37.187 5.18072 39.5234 7.51711C40.1563 8.15005 40.1485 8.52512 39.5155 9.15806C36.0305 12.6509 32.5376 16.1438 29.0526 19.6288C28.9432 19.7382 28.8025 19.8164 28.6462 19.9414C28.8103 20.1211 28.9119 20.2305 29.0213 20.3399C32.522 23.8406 36.0149 27.3413 39.5155 30.842C40.1641 31.4905 40.1563 31.8578 39.5077 32.5142C37.1713 34.8506 34.8271 37.1948 32.4907 39.5312C31.8578 40.1641 31.4827 40.1563 30.8498 39.5234C27.3491 36.0227 23.8562 32.522 20.3556 29.0213C20.254 28.9197 20.1758 28.8025 20.0586 28.6541C19.9023 28.8025 19.7929 28.9041 19.6835 29.0135C16.1829 32.5142 12.6822 36.007 9.1815 39.5077C8.52512 40.1641 8.15786 40.1641 7.5093 39.5155C5.16509 37.1792 2.83651 34.8506 0.507929 32.522C-0.164078 31.85 -0.171892 31.4905 0.500115 30.8263C4.0008 27.3257 7.50148 23.8328 11.0022 20.3321C11.0959 20.2227 11.1897 20.1211 11.3069 20.0039ZM8.39228 38.0153C8.48605 37.8902 8.56419 37.7652 8.66577 37.6636C12.143 34.1786 15.6203 30.7013 19.1053 27.2241C19.8398 26.4896 20.168 26.4896 20.8869 27.2085C24.3641 30.6935 27.8414 34.1707 31.3186 37.6558C31.428 37.7652 31.4984 37.9137 31.5531 37.984C33.7175 35.8195 35.8195 33.7254 37.9684 31.5765C37.8746 31.5062 37.7339 31.4202 37.6245 31.3108C34.1317 27.8258 30.6466 24.3329 27.1538 20.84C26.4896 20.1758 26.4896 19.8164 27.1616 19.1366C30.6544 15.6515 34.1395 12.1586 37.6402 8.67359C37.7496 8.56419 37.898 8.49386 37.9918 8.43135C35.8195 6.25905 33.7254 4.16489 31.5765 2.01604C31.514 2.10199 31.4358 2.22701 31.3343 2.3286C27.8336 5.82928 24.3329 9.32215 20.8322 12.8228C20.1602 13.4948 19.8086 13.487 19.1288 12.8072C15.6515 9.32996 12.1586 5.83709 8.67359 2.34422C8.56419 2.23483 8.50168 2.07855 8.45479 2.00822C6.27468 4.18833 4.18052 6.28249 2.03166 8.42354C2.1098 8.48605 2.23483 8.56419 2.33641 8.66577C5.82928 12.1586 9.31434 15.6437 12.7994 19.1366C13.4948 19.832 13.4948 20.1758 12.8072 20.8635C9.32215 24.3563 5.83709 27.8492 2.34422 31.3343C2.23483 31.4437 2.08636 31.5062 1.96134 31.5843C4.14926 33.7644 6.23561 35.8508 8.39228 38.0153Z" fill="#E73638"/>
</g>
</g>
<defs>
<clipPath id="clip0_469_4862">
<rect width="40" height="40" fill="white" transform="matrix(-1 0 0 1 40 0)"/>
</clipPath>
<clipPath id="clip1_469_4862">
<rect width="39.9922" height="40" fill="white"/>
</clipPath>
</defs>
</svg>
