<svg width="34" height="36" viewBox="0 0 34 36" fill="none" xmlns="http://www.w3.org/2000/svg">
<g clip-path="url(#clip0_469_9604)">
<path d="M0 24.5768C0.084408 22.2978 0.815944 20.3283 2.483 18.7316C3.27081 17.979 3.99531 17.156 4.82532 16.4526C6.78077 14.8066 9.07386 14.2158 11.5639 14.7292C16.6917 15.7843 19.9484 18.8934 21.2286 23.9649C22.0023 27.0247 21.2356 29.7398 18.9566 31.9766C18.3939 32.5253 17.8453 33.088 17.2896 33.6437C15.4889 35.4233 13.3294 36.1759 10.8042 35.9649C5.28253 35.5077 1.34349 31.1396 0.3517 26.8981C0.17585 26.1384 0.112544 25.3506 0 24.5768ZM9.99531 15.7984C7.0973 15.7492 4.64244 17.4655 3.71395 20.1947C3.10199 21.9883 3.27784 23.782 3.94607 25.4913C5.58499 29.6835 8.63775 32.1736 13.1395 32.6659C15.3482 32.9051 17.2896 32.1314 18.7456 30.401C20.1383 28.7339 20.4971 26.7855 20.1524 24.6613C19.3787 19.8289 14.8769 15.8828 9.99531 15.7984ZM2.27198 20.8981C2.17351 21.0528 2.1102 21.1513 2.06096 21.2498C1.25205 22.7832 1.0551 24.4291 1.41383 26.0962C2.32825 30.3096 4.91676 33.0809 8.98945 34.4244C10.9449 35.0716 12.9144 34.9801 14.7925 34.0235C14.905 33.9672 15.0176 33.8899 15.1583 33.8055C11.4091 34.1923 8.27902 32.9895 5.67644 30.394C3.08089 27.7914 1.87104 24.6683 2.27198 20.8981Z" fill="#37383D"/>
<path d="M22.98 18.4922C21.7491 18.443 20.708 18.0209 19.8429 17.1558C19.3575 16.6634 18.8792 16.164 18.3728 15.6927C17.2262 14.6235 16.8886 13.273 17.0926 11.7818C17.395 9.58718 18.429 7.73021 19.9202 6.11942C21.4185 4.50864 23.1559 3.22142 25.3153 2.6587C26.0046 2.47581 26.7502 2.39844 27.4677 2.41251C28.5369 2.42657 29.4724 2.83455 30.225 3.61532C30.7385 4.14287 31.259 4.67042 31.7936 5.1839C32.8487 6.1968 33.1934 7.45588 33.0527 8.86972C32.8487 10.994 31.8569 12.7666 30.4994 14.3492C28.9519 16.1499 27.1019 17.5356 24.7737 18.1757C24.1899 18.3304 23.5779 18.3867 22.98 18.4922ZM21.1934 15.4535C21.6506 15.3762 22.1289 15.348 22.5721 15.2144C25.8288 14.2015 28.1148 12.0913 29.5005 8.99633C29.8733 8.15928 30.0984 7.273 30.0703 6.34451C30.014 4.83923 29.1277 3.7982 27.6365 3.65752C26.9753 3.59422 26.2719 3.68566 25.6318 3.85448C23.6272 4.38906 22.0234 5.59187 20.6518 7.11825C19.4279 8.48988 18.5767 10.0585 18.2954 11.8943C17.9578 13.9905 19.1395 15.4113 21.1934 15.4535ZM31.3012 6.46409C31.0973 9.23548 29.8733 11.4442 27.9882 13.3152C26.1031 15.1792 23.9366 16.5157 21.1793 16.6915C21.3903 16.8322 21.5943 16.9518 21.8194 17.0292C22.8112 17.3598 23.796 17.2402 24.7526 16.9096C27.5803 15.9389 29.6272 14.0397 31.0129 11.4231C31.5967 10.3258 31.9484 9.15108 31.8358 7.87792C31.7796 7.37851 31.6459 6.90723 31.3012 6.46409Z" fill="#37383D"/>
<path d="M12.1687 10.3541C12.1546 12.5909 10.4454 14.0188 8.1804 13.6812C6.62589 13.449 5.3035 12.7316 4.11475 11.7398C2.65168 10.5159 1.58251 9.01762 1.04793 7.17471C0.808774 6.35173 0.745468 5.51469 0.97759 4.67764C1.40666 3.10203 2.91897 2.18057 4.67044 2.42676C6.78767 2.72219 8.47583 3.79839 9.88967 5.3529C10.987 6.55572 11.8099 7.92031 12.0913 9.55923C12.1335 9.81949 12.1405 10.0868 12.1687 10.3541ZM2.04676 5.85935C2.05379 5.94376 2.06083 6.09147 2.07489 6.24622C2.08193 6.31656 2.096 6.3869 2.11006 6.45021C2.4899 8.17354 3.43246 9.55924 4.74781 10.6917C5.80995 11.6061 6.99166 12.2884 8.41253 12.4854C9.72085 12.6683 10.7337 12.0352 10.8955 10.8535C10.9588 10.3822 10.9166 9.8617 10.8041 9.39745C10.4172 7.7515 9.43949 6.46428 8.19447 5.36697C7.1253 4.43145 5.90842 3.78432 4.48052 3.60847C3.00338 3.43262 2.02566 4.31187 2.04676 5.85935Z" fill="#37383D"/>
<path d="M15.2428 1.51226C15.2428 1.80066 15.2498 2.09609 15.2428 2.38448C15.2287 2.74321 14.9825 2.99644 14.6589 2.99644C14.3354 2.99644 14.0681 2.75025 14.054 2.39151C14.0399 1.79362 14.0399 1.20277 14.054 0.604878C14.061 0.246144 14.3213 -4.60804e-05 14.6449 -0.00708008C14.9895 -0.00708008 15.2287 0.23911 15.2428 0.62598C15.2498 0.928442 15.2428 1.21684 15.2428 1.51226Z" fill="#E73638"/>
<path d="M16.7691 3.0104C17.0574 3.0104 17.3529 3.00337 17.6413 3.0104C17.9859 3.02447 18.2251 3.25659 18.2462 3.57312C18.2603 3.89669 18.0211 4.18508 17.6694 4.19915C17.0504 4.22025 16.4314 4.22025 15.8124 4.19915C15.4748 4.18508 15.2427 3.91075 15.2427 3.60126C15.2427 3.27769 15.4959 3.03854 15.8546 3.0104C15.8757 3.0104 15.9039 3.0104 15.925 3.0104C16.2063 3.00337 16.4877 3.00337 16.7691 3.0104C16.7691 3.00337 16.7691 3.00337 16.7691 3.0104Z" fill="#E73638"/>
<path d="M12.5484 3.01045C12.8438 3.01045 13.1322 3.00342 13.4277 3.01045C13.7864 3.02452 14.0185 3.24257 14.0326 3.56614C14.0537 3.90377 13.8286 4.18513 13.4628 4.1992C12.8438 4.2203 12.2178 4.2203 11.5988 4.1992C11.2542 4.18513 11.0361 3.91784 11.0431 3.59427C11.0502 3.27071 11.2753 3.03156 11.627 3.01749C11.9435 2.99639 12.2459 3.01045 12.5484 3.01045Z" fill="#E73638"/>
<path d="M15.2356 5.69745C15.2356 5.99991 15.2497 6.30941 15.2356 6.61187C15.2216 6.96357 14.9894 7.18866 14.6588 7.19569C14.3353 7.20273 14.068 6.98467 14.0539 6.64001C14.0328 6.02102 14.0328 5.39499 14.0539 4.776C14.068 4.41727 14.3493 4.19218 14.687 4.21328C15.0105 4.23438 15.2286 4.45947 15.2356 4.8182C15.2497 5.1066 15.2356 5.40203 15.2356 5.69745Z" fill="#E73638"/>
<path d="M24.0353 21.531C24.2463 21.6576 24.4292 21.728 24.5558 21.8475C24.9216 22.1922 25.2733 22.5509 25.625 22.9097C25.9134 23.2051 25.9345 23.5638 25.6953 23.81C25.4491 24.0703 25.0763 24.0492 24.7668 23.7467C24.394 23.3809 24.0212 23.0081 23.6555 22.6283C23.4726 22.4384 23.3952 22.1852 23.5429 21.9601C23.6555 21.7983 23.8524 21.6858 24.0353 21.531Z" fill="#E73638"/>
<path d="M28.9099 26.4547C28.7974 26.6024 28.713 26.8205 28.5512 26.8979C28.3894 26.9752 28.0869 26.9963 27.9744 26.8979C27.482 26.4688 27.0178 26.0045 26.5817 25.5192C26.3847 25.2941 26.448 25.0057 26.659 24.7877C26.8771 24.5696 27.1655 24.5133 27.3906 24.7103C27.8689 25.1394 28.312 25.6036 28.7552 26.0678C28.8255 26.1523 28.8396 26.2859 28.9099 26.4547Z" fill="#E73638"/>
<path d="M26.9965 24.0561C26.8488 23.9436 26.6237 23.8521 26.5534 23.6904C26.483 23.5145 26.476 23.205 26.5885 23.0784C26.9965 22.6001 27.4537 22.1569 27.918 21.7349C28.143 21.5239 28.4666 21.5731 28.6847 21.7841C28.9027 21.9952 28.952 22.3187 28.748 22.5438C28.3259 23.0081 27.8687 23.4512 27.4115 23.8873C27.3271 23.9717 27.1794 23.9858 26.9965 24.0561Z" fill="#E73638"/>
<path d="M25.9344 25.1957C25.8077 25.4067 25.7444 25.5614 25.6389 25.674C25.2802 26.0538 24.9074 26.4266 24.5276 26.7924C24.2321 27.0808 23.8734 27.0808 23.6272 26.8276C23.388 26.5743 23.3951 26.2437 23.6764 25.9553C24.0563 25.5614 24.4502 25.1746 24.8441 24.7947C25.041 24.6048 25.2943 24.5345 25.5123 24.6963C25.6811 24.8088 25.7937 25.0198 25.9344 25.1957Z" fill="#E73638"/>
<path d="M4.54395 22.4666C4.57208 19.1255 7.01288 16.7761 10.347 17.0082C13.7022 17.2404 16.1219 19.027 17.8452 21.8125C18.7808 23.3177 19.2239 24.9778 19.034 26.7785C18.7386 29.6413 16.2978 31.6741 13.4279 31.4983C8.53222 31.2028 5.31769 27.1724 4.71276 23.8523C4.63539 23.3951 4.60022 22.9309 4.54395 22.4666ZM10.1571 18.1829C9.25672 18.1407 8.41264 18.3447 7.64594 18.823C6.20397 19.7234 5.5076 21.4467 5.82413 23.3388C6.42202 26.884 9.53105 29.8593 13.0903 30.2884C15.1864 30.5416 17.0293 29.4443 17.6483 27.5663C17.9296 26.7151 17.9367 25.8429 17.789 24.9637C17.3107 22.1008 14.4548 18.408 10.1571 18.1829Z" fill="#37383D"/>
<path d="M26.7924 6.5979C27.13 6.62604 27.341 6.76672 27.4043 7.07621C27.4677 7.39274 27.3481 7.63893 27.0456 7.75851C26.6306 7.91326 26.2086 8.0469 25.7865 8.18758C24.5345 8.60259 23.2754 9.0176 22.0233 9.43964C21.7701 9.52404 21.538 9.52404 21.334 9.34116C20.9682 9.01056 21.116 8.47598 21.6294 8.30013C22.8252 7.89919 24.028 7.49825 25.2238 7.09731C25.6529 6.95663 26.089 6.80892 26.5251 6.66824C26.6165 6.6401 26.722 6.619 26.7924 6.5979Z" fill="#37383D"/>
<path d="M22.1921 12.4642C21.8685 12.4642 21.6645 12.3094 21.5731 12.021C21.4887 11.7467 21.6294 11.4302 21.9178 11.3317C22.797 11.0222 23.6833 10.7268 24.5766 10.4454C24.865 10.354 25.1815 10.558 25.273 10.8464C25.3715 11.1629 25.2237 11.4865 24.8791 11.606C24.0491 11.8944 23.2191 12.1688 22.389 12.4431C22.3187 12.4501 22.2484 12.4501 22.1921 12.4642Z" fill="#37383D"/>
<path d="M12.6613 20.4689C12.6332 20.5463 12.598 20.6869 12.5347 20.8065C11.7821 22.3259 11.0224 23.8382 10.2627 25.3505C10.0517 25.7725 9.72112 25.9132 9.39052 25.7373C9.06696 25.5685 8.98255 25.2309 9.1795 24.83C9.94621 23.2895 10.7129 21.7561 11.4867 20.2227C11.6625 19.871 11.9087 19.7444 12.2252 19.8358C12.4996 19.9202 12.6402 20.1172 12.6613 20.4689Z" fill="#37383D"/>
<path d="M12.183 27.6085C11.6413 27.6225 11.3248 27.1864 11.5218 26.7785C11.9157 25.9414 12.3307 25.1184 12.7668 24.3025C12.9145 24.0141 13.2521 23.9438 13.5265 24.0704C13.8008 24.197 13.9555 24.5205 13.8219 24.8089C13.4139 25.6601 12.9919 26.5112 12.5487 27.3412C12.4643 27.4889 12.2533 27.5522 12.183 27.6085Z" fill="#37383D"/>
</g>
<defs>
<clipPath id="clip0_469_9604">
<rect width="33.0809" height="36" fill="white"/>
</clipPath>
</defs>
</svg>
