<svg width="36" height="36" viewBox="0 0 36 36" fill="none" xmlns="http://www.w3.org/2000/svg">
<g clip-path="url(#clip0_469_9558)">
<path d="M12.8511 31.256C13.8277 31.4746 14.7896 31.7734 15.7734 31.9119C23.2212 32.9394 30.0204 28.1078 31.4851 20.7329C32.0754 17.7742 31.7038 14.9176 30.443 12.1702C30.3774 12.0244 30.3046 11.886 30.2463 11.7402C30.0641 11.2738 30.2463 10.8001 30.6689 10.6034C31.0989 10.3993 31.609 10.5451 31.8131 11.0042C32.1775 11.8204 32.5564 12.6439 32.8115 13.4965C35.2455 21.6293 30.9386 30.1119 22.937 32.9321C19.8689 34.0107 16.7426 34.1054 13.5945 33.2528C13.4924 33.2236 13.3831 33.2018 13.1936 33.1507C13.4997 33.6609 13.7839 34.0981 14.0317 34.5572C14.141 34.7613 14.2212 35.009 14.2212 35.235C14.2139 35.6139 13.9005 35.9127 13.5362 35.9856C13.1864 36.0584 12.822 35.9054 12.6106 35.5556C12.0131 34.5864 11.4301 33.6099 10.8325 32.6333C10.6722 32.371 10.5119 32.1159 10.3588 31.8536C10.1038 31.4018 10.1694 30.9645 10.5774 30.6512C11.656 29.8277 12.7418 29.0042 13.8349 28.1953C14.2576 27.8819 14.775 27.9621 15.0665 28.3556C15.358 28.7418 15.2924 29.2593 14.8843 29.5872C14.3159 30.039 13.7256 30.469 13.1426 30.9062C13.0479 30.9791 12.9604 31.0593 12.8657 31.1321C12.8511 31.1759 12.8511 31.2123 12.8511 31.256Z" fill="#E73638"/>
<path d="M22.5798 4.94097C21.5304 4.53287 20.5102 4.27052 19.4681 4.17578C13.4195 3.62923 8.71178 5.93206 5.6219 11.1426C3.19518 15.2454 3.12231 19.596 5.05348 23.9612C5.11178 24.0924 5.17737 24.2236 5.23567 24.3547C5.43243 24.8357 5.25753 25.3167 4.82028 25.528C4.38303 25.7321 3.89478 25.5644 3.65429 25.0908C2.96927 23.7426 2.48101 22.3215 2.24052 20.8276C1.43891 15.8284 2.6632 11.3758 6.01542 7.57902C8.73364 4.50372 12.1952 2.79846 16.2907 2.39036C18.2948 2.1936 20.2624 2.39036 22.1936 2.95878C22.2737 2.98064 22.3539 2.99522 22.4996 3.03165C22.4195 2.86404 22.3685 2.75473 22.3102 2.64542C22.0697 2.17902 21.8146 1.7272 21.5887 1.25352C21.3774 0.801695 21.545 0.313436 21.9676 0.1021C22.3903 -0.116524 22.864 0.0292254 23.1336 0.451898C23.1628 0.50291 23.1919 0.561209 23.2211 0.612221C23.8551 1.81465 24.4891 3.01708 25.1158 4.21951C25.4292 4.81708 25.3272 5.22518 24.7733 5.58955C23.7093 6.29643 22.6527 6.99603 21.5814 7.69562C21.0786 8.03084 20.5539 7.95797 20.2697 7.5353C19.9709 7.09076 20.1094 6.58064 20.6268 6.23084C21.2608 5.80817 21.8948 5.39279 22.5798 4.94097Z" fill="#37383D"/>
</g>
<defs>
<clipPath id="clip0_469_9558">
<rect width="31.4891" height="36" fill="white" transform="translate(2)"/>
</clipPath>
</defs>
</svg>
