<svg width="36" height="36" viewBox="0 0 36 36" fill="none" xmlns="http://www.w3.org/2000/svg">
<path d="M4.5941e-06 17.9787C0.00703584 8.05759 8.1 -0.0142883 18.0211 -0.000225794C27.9422 0.0138367 36.0141 8.09977 36 18.0209C35.9859 27.942 27.893 36.0138 17.9789 35.9998C8.05782 35.9857 -0.00702666 27.8998 4.5941e-06 17.9787ZM1.40625 17.9787C1.39922 27.1193 8.83828 34.5795 17.9789 34.5935C27.1195 34.6076 34.5797 27.1545 34.5938 18.0209C34.6008 8.88024 27.1617 1.42009 18.0211 1.41306C8.87344 1.39899 1.41329 8.84509 1.40625 17.9787Z" fill="#37383D"/>
<path d="M20.6368 20.3415C19.8704 21.1361 18.9704 21.579 17.8947 21.5017C17.3954 21.4665 16.8892 21.3119 16.4111 21.129C15.9118 20.9392 15.7642 20.5103 15.9681 20.1165C16.165 19.7369 16.5447 19.6454 17.0298 19.8775C18.2814 20.4681 19.6947 19.8634 20.0392 18.5767C20.2642 17.7329 20.0462 16.9876 19.3853 16.4181C18.7173 15.8345 17.9439 15.7431 17.1212 16.0876C16.9947 16.1439 16.8681 16.2142 16.7345 16.2423C16.39 16.3197 16.0665 16.1439 15.94 15.8204C15.8134 15.5181 15.9048 15.1595 16.2001 14.9908C16.5306 14.8009 16.8962 14.6673 17.297 14.4915C17.297 14.4212 17.297 14.2947 17.297 14.1681C17.297 11.8056 17.297 9.43607 17.297 7.07357C17.297 6.9681 17.29 6.86264 17.304 6.75717C17.3462 6.37748 17.6345 6.11029 18.0072 6.11732C18.3658 6.12435 18.654 6.37748 18.6962 6.7431C18.7103 6.8556 18.7032 6.97514 18.7032 7.09467C18.7032 9.45014 18.7032 11.8056 18.7032 14.154C18.7032 14.2806 18.7032 14.4072 18.7032 14.4634C19.1884 14.7095 19.6525 14.8853 20.0533 15.1595C21.2345 15.9751 21.7618 17.4306 21.4173 18.8439C21.3611 19.0829 21.4243 19.1744 21.6142 19.2798C23.1611 20.1658 24.6939 21.0517 26.2337 21.9447C26.3462 22.0079 26.4587 22.0712 26.5642 22.1486C26.8806 22.3736 26.965 22.7603 26.7822 23.0767C26.5993 23.3931 26.2126 23.5197 25.8681 23.3509C25.5236 23.1751 25.1931 22.9712 24.8626 22.7814C23.5478 22.022 22.2259 21.2626 20.9111 20.4962C20.8267 20.44 20.7423 20.4048 20.6368 20.3415Z" fill="#E73638"/>
<path d="M18.7031 3.78997C18.7031 3.97982 18.7172 4.16263 18.7031 4.35247C18.668 4.73216 18.3727 4.99935 18 4.99935C17.6344 4.99935 17.325 4.73216 17.3039 4.35247C17.2828 3.97982 17.2828 3.60716 17.3039 3.2345C17.325 2.85482 17.6203 2.57357 17.9859 2.56654C18.3586 2.5595 18.668 2.84075 18.7031 3.24154C18.7102 3.41732 18.7031 3.60716 18.7031 3.78997Z" fill="#37383D"/>
<path d="M3.797 17.2968C3.97278 17.2968 4.14856 17.2898 4.32434 17.2968C4.72513 17.325 5.00638 17.6203 4.99934 18C4.99934 18.3656 4.72513 18.6679 4.34544 18.689C3.97278 18.7101 3.60013 18.7101 3.22747 18.689C2.84778 18.6679 2.57356 18.3656 2.56653 18.007C2.5595 17.6343 2.84778 17.325 3.24153 17.2968C3.42434 17.2898 3.60716 17.2968 3.797 17.2968Z" fill="#37383D"/>
<path d="M32.2103 18.7032C32.0204 18.7032 31.8376 18.7172 31.6478 18.7032C31.2681 18.668 31.0009 18.3727 31.0079 18C31.0079 17.6344 31.2751 17.3321 31.6619 17.311C32.0345 17.2899 32.4072 17.2899 32.7798 17.311C33.1595 17.3321 33.4337 17.6344 33.4478 17.993C33.4548 18.3657 33.1736 18.675 32.7728 18.7032C32.5829 18.7102 32.3931 18.7032 32.2103 18.7032Z" fill="#37383D"/>
<path d="M17.2968 32.2313C17.2968 32.0415 17.2827 31.8587 17.2968 31.6688C17.3249 31.2681 17.6272 30.9938 18.0069 31.0009C18.3726 31.0079 18.6679 31.2751 18.689 31.6618C18.7101 32.0345 18.7101 32.4071 18.689 32.7798C18.6679 33.1595 18.3585 33.4337 17.9929 33.4337C17.6343 33.4337 17.3249 33.1595 17.2968 32.7868C17.2897 32.604 17.3038 32.4212 17.2968 32.2313Z" fill="#37383D"/>
<path d="M6.03267 11.8548C5.57564 11.6368 5.02017 11.447 4.64049 10.9759C4.45064 10.7368 4.49283 10.4345 4.6897 10.1954C4.89361 9.94934 5.16783 9.83684 5.47017 9.97746C5.84283 10.1603 6.21549 10.3642 6.56002 10.6032C6.82721 10.7861 6.89049 11.0814 6.78502 11.3837C6.67955 11.6931 6.44049 11.8407 6.03267 11.8548Z" fill="#37383D"/>
<path d="M31.4651 10.7649C31.3877 10.8633 31.2752 11.1024 31.0924 11.243C30.8323 11.4469 30.5159 11.6016 30.2205 11.7563C29.8619 11.9462 29.4682 11.8407 29.2713 11.5172C29.0674 11.1868 29.1659 10.7719 29.5244 10.5469C29.8268 10.3571 30.1362 10.1672 30.4666 10.0126C30.9307 9.78053 31.451 10.104 31.4651 10.7649Z" fill="#37383D"/>
<path d="M11.1235 29.1094C11.6719 29.1797 12.0024 29.693 11.7774 30.1641C11.6157 30.5086 11.4118 30.8391 11.2008 31.1625C10.9899 31.4789 10.5821 31.5492 10.2727 31.3594C9.97035 31.1766 9.83676 30.8109 9.99848 30.4805C10.1743 30.1289 10.3641 29.7773 10.5961 29.4609C10.7157 29.2992 10.9407 29.2219 11.1235 29.1094Z" fill="#37383D"/>
<path d="M24.919 29.1094C25.0948 29.243 25.3128 29.3414 25.4393 29.5172C25.6503 29.7914 25.812 30.1078 25.9667 30.4172C26.1636 30.7898 26.044 31.1906 25.6995 31.3805C25.369 31.5633 24.9753 31.4578 24.7573 31.1133C24.5745 30.818 24.3917 30.5156 24.237 30.2063C23.9909 29.7 24.3284 29.1586 24.919 29.1094Z" fill="#37383D"/>
<path d="M11.0673 6.89075C10.8915 6.75715 10.6806 6.64465 10.554 6.4759C10.3501 6.20872 10.2025 5.89934 10.0408 5.60403C9.83685 5.22434 9.94232 4.83059 10.2798 4.63372C10.6173 4.43684 11.0251 4.53528 11.2501 4.89387C11.4329 5.18918 11.6158 5.49153 11.7704 5.8009C12.0095 6.31418 11.665 6.84856 11.0673 6.89075Z" fill="#37383D"/>
<path d="M26.0789 5.27337C26.0578 5.34368 26.0437 5.45618 25.9945 5.54055C25.8187 5.86399 25.6359 6.19446 25.432 6.51087C25.2211 6.8343 24.8273 6.91868 24.5109 6.7429C24.1945 6.56712 24.0469 6.17337 24.2156 5.83587C24.3914 5.4843 24.5953 5.13977 24.8133 4.8093C25.0102 4.52102 25.3125 4.46477 25.6219 4.5843C25.9242 4.6968 26.0508 4.9429 26.0789 5.27337Z" fill="#37383D"/>
<path d="M29.1025 24.8906C29.1729 24.3351 29.6861 23.9976 30.1643 24.2226C30.5088 24.3844 30.8393 24.5883 31.1627 24.7992C31.4791 25.0101 31.5494 25.4109 31.3666 25.7273C31.1838 26.0367 30.7971 26.1703 30.4525 25.9945C30.1221 25.8258 29.7846 25.65 29.4893 25.425C29.3275 25.2984 29.2291 25.0734 29.1025 24.8906Z" fill="#37383D"/>
<path d="M6.88355 24.8977C6.76402 25.0735 6.68668 25.2985 6.52496 25.418C6.21558 25.643 5.87808 25.8258 5.53355 26.0016C5.18902 26.1703 4.80933 26.0368 4.62652 25.7203C4.44371 25.3969 4.52808 25.0032 4.84449 24.7922C5.15386 24.5883 5.4773 24.3985 5.8148 24.2368C6.30699 23.9977 6.83433 24.3352 6.88355 24.8977Z" fill="#37383D"/>
<path d="M15.8837 17.993C15.8907 18.3657 15.5814 18.6891 15.2087 18.7032C14.822 18.7172 14.4915 18.4008 14.4845 18.0141C14.4775 17.6344 14.7798 17.318 15.1525 17.304C15.5392 17.2829 15.8767 17.6063 15.8837 17.993Z" fill="#E73638"/>
</svg>
