<svg width="44" height="15" viewBox="0 0 44 15" fill="none" xmlns="http://www.w3.org/2000/svg">
<path d="M18.7336 14.6233H15.2074L17.4113 1.07701H20.9378L18.7336 14.6233ZM12.241 1.07701L8.87934 10.3943L8.48155 8.38791L8.48191 8.38864L7.29542 2.29671C7.29542 2.29671 7.15195 1.07701 5.62273 1.07701H0.0652122L0 1.30639C0 1.30639 1.6995 1.66005 3.68847 2.85473L6.75198 14.6237H10.426L16.036 1.07701H12.241ZM39.9761 14.6233H43.2138L40.3909 1.07665H37.5563C36.2474 1.07665 35.9286 2.08618 35.9286 2.08618L30.6696 14.6233H34.3454L35.0805 12.6112H39.5631L39.9761 14.6233ZM36.096 9.83154L37.9487 4.76218L38.991 9.83154H36.096ZM30.9453 4.3346L31.4485 1.4256C31.4485 1.4256 29.8957 0.834961 28.277 0.834961C26.5272 0.834961 22.3717 1.59989 22.3717 5.31948C22.3717 8.81912 27.2489 8.8626 27.2489 10.7008C27.2489 12.5391 22.8742 12.2097 21.4305 11.0505L20.9063 14.0921C20.9063 14.0921 22.4808 14.8571 24.8864 14.8571C27.2927 14.8571 30.9228 13.6109 30.9228 10.2193C30.9228 6.69716 26.0019 6.36923 26.0019 4.83791C26.0022 3.30623 29.4364 3.50299 30.9453 4.3346Z" fill="white"/>
</svg>
