<svg width="14" height="15" viewBox="0 0 14 15" fill="none" xmlns="http://www.w3.org/2000/svg">
<path d="M13.405 3.65211C13.0252 2.97661 12.6131 2.85236 11.774 2.80511C10.9358 2.74823 8.82788 2.72461 7.00175 2.72461C5.17212 2.72461 3.06337 2.74823 2.226 2.80423C1.38862 2.85236 0.975625 2.97573 0.592375 3.65211C0.20125 4.32673 0 5.48873 0 7.53448C0 7.53623 0 7.53711 0 7.53711C0 7.53886 0 7.53973 0 7.53973V7.54148C0 9.57848 0.20125 10.7492 0.592375 11.4169C0.975625 12.0924 1.38775 12.2149 2.22513 12.2717C3.06337 12.3207 5.17212 12.3496 7.00175 12.3496C8.82788 12.3496 10.9358 12.3207 11.7749 12.2726C12.614 12.2157 13.0261 12.0932 13.4059 11.4177C13.8005 10.7501 14 9.57936 14 7.54236C14 7.54236 14 7.53973 14 7.53798C14 7.53798 14 7.53623 14 7.53536C14 5.48873 13.8005 4.32673 13.405 3.65211ZM5.25 10.1621V4.91211L9.625 7.53711L5.25 10.1621Z" fill="#E73638"/>
</svg>
